<svg id="Capa_1" data-name="Capa 1" xmlns="http://www.w3.org/2000/svg" viewBox="0 0 762.68 890.81"><defs><style>.cls-1{fill:#227bbe;}.cls-2{fill:#e53315;}.cls-3{fill:#fff;}.cls-4{fill:none;stroke:#cd94af;}.cls-4,.cls-5{stroke-miterlimit:10;stroke-width:3.87px;}.cls-5{fill:#e5332a;stroke:#1d70b7;}</style></defs><path class="cls-1" d="M747.11,353.61A306.52,306.52,0,0,1,550.85,639.45c-1.58.6-3.16,1.21-4.77,1.79A307.58,307.58,0,0,1,440.92,659.8a306.13,306.13,0,0,1-55.22-5A298.38,298.38,0,0,1,356.48,648a304.94,304.94,0,0,1-33.9-11.94q-13.57-5.69-26.49-12.63c-1.46-.76-2.92-1.58-4.34-2.4a306,306,0,0,1-157-267.43c0-169.1,137.09-306.19,306.19-306.19S747.11,184.51,747.11,353.61Z" transform="translate(-47 -47.42)"/><path class="cls-1" d="M296.09,635.59V782.06c-19.71,6.71-57,15.92-94.35,15.92-51.58,0-88.91-13-114.88-38.16-26-24.3-40.28-61.2-39.85-102.73C47.37,576,98.44,524.84,172.1,512.44a305.45,305.45,0,0,0,34.08,49.91c-52.55.52-92.07,30.71-92.07,91.4,0,58.26,36.48,92.65,88.88,92.65,14.7,0,26.43-1.67,31.47-4.19V683.1H190.84V633.19H291.75C293.17,634,294.63,634.83,296.09,635.59Z" transform="translate(-47 -47.42)"/><path class="cls-1" d="M356.48,657.12V798.58h-33.9V645.19A306.94,306.94,0,0,0,356.48,657.12Z" transform="translate(-47 -47.42)"/><path class="cls-1" d="M486.21,756.79c-3.77-13.64-9.51-23.54-19.93-27.71v-.66c12.85-4.62,26.34-17.59,26.34-36.52,0-10.69-3-19.41-8.63-26a307.75,307.75,0,0,1-98.29-1.94V798.58h33.41V740.29h10.21c13.73.22,20.14,5.29,24.12,23.76,4.43,18.25,8,30.34,10.41,34.53h34.54C495.51,792.84,490.86,773.49,486.21,756.79Zm-53.79-40.68H419.11V675.2a86.27,86.27,0,0,1,15.28-1.1c15.52.22,24.82,7,24.82,20.69C459.21,707.76,449.24,716.11,432.42,716.11Z" transform="translate(-47 -47.42)"/><path class="cls-1" d="M610.2,770.43v28.15H517V659.4a303,303,0,0,0,29.1-9c1.61-.58,3.19-1.18,4.77-1.79V770.43Z" transform="translate(-47 -47.42)"/><path class="cls-1" d="M809.68,714.81c0,46.72-36.21,86.42-113.24,86.42-32.08,0-63.7-8.3-79.52-17l12.91-52.1c17.07,8.69,43.28,17.38,70.35,17.38,29.16,0,44.56-12,44.56-30.2,0-17.34-13.34-27.27-47-39.27C657,666,628.7,644.7,622.11,612.59a307.45,307.45,0,0,0,86.3-97.75,165.34,165.34,0,0,1,18.41-1c31.65,0,55,6.62,71.62,14.07l-14.15,50.84a134.23,134.23,0,0,0-58.72-13.24c-27.46,0-40.79,12.42-40.79,26.88,0,17.8,15.82,25.64,52,39.28C786.35,649.86,809.68,675.5,809.68,714.81Z" transform="translate(-47 -47.42)"/><path class="cls-2" d="M91.69,770.51m-18,165.37V869.6h36.05v66.28Z" transform="translate(-47 -47.42)"/><path class="cls-2" d="M124.92,857.44c0-14.37-.47-26.62-1-36.75h31.32l1.65,15.78h.72c4.74-7.3,16.6-18.37,35.81-18.37,23.72,0,41.52,15.55,41.52,49.47v68.31H198.93V872c0-14.84-5.22-25-18.26-25-10,0-15.9,6.84-18.27,13.43a24.41,24.41,0,0,0-1.42,9v66.43H124.92Z" transform="translate(-47 -47.42)"/><path class="cls-2" d="M311.6,904.55c6.64,4,20.4,8.72,31.07,8.72,10.91,0,15.42-3.77,15.42-9.66s-3.56-8.72-17.08-13.19c-24-8-33.21-21-33-34.63,0-21.44,18.5-37.69,47.2-37.69,13.52,0,25.62,3.06,32.74,6.6l-6.41,24.73c-5.22-2.83-15.18-6.6-25.14-6.6-8.78,0-13.76,3.54-13.76,9.43,0,5.41,4.51,8.24,18.74,13.19C383.47,873,392.72,884.06,393,901c0,21.43-17.08,37.22-50.29,37.22-15.18,0-28.7-3.3-37.48-8Z" transform="translate(-47 -47.42)"/><path class="cls-2" d="M481,820.69v26.38H455.1v41.7c0,13.9,3.32,20.26,14.23,20.26a58.5,58.5,0,0,0,10.68-.95l.23,27.09c-4.74,1.89-13.28,3.07-23.48,3.07-11.63,0-21.35-4-27-9.9-6.64-6.83-10-17.9-10-34.15V847.07H404.34V820.69Z" transform="translate(-47 -47.42)"/><path class="cls-2" d="M528.39,889.71c1.19,14.84,15.89,21.91,32.74,21.91a102.91,102.91,0,0,0,32-4.71l4.74,24.26c-11.86,4.71-26.33,7.07-42,7.07-39.38,0-61.91-22.62-61.91-58.66,0-29.21,18.26-61.48,58.59-61.48,37.48,0,51.71,29,51.71,57.48a84.85,84.85,0,0,1-1.19,14.13Zm42.46-24.5c0-8.71-3.79-23.32-20.4-23.32-15.18,0-21.35,13.67-22.3,23.32Z" transform="translate(-47 -47.42)"/><path class="cls-2" d="M625.88,857.44c0-14.37-.48-26.62-1-36.75h30.36L657,836.24h.71c5-7.31,15.19-18.14,35.11-18.14,14.94,0,26.8,7.54,31.79,19.55,0,0,10.3-9.85,36.65-9.85,25.38,0,40,16.15,40,50.54v57.54h-35.1V883.52c0-16.72-5.46-26.38-17.08-26.38-8.3,0-14.24,5.65-16.61,12.48a29.73,29.73,0,0,0-1.42,9.19v57.07H695.85V871.34c0-14.61-5.22-24.5-16.6-24.5-9.25,0-14.71,7.07-16.84,12.95a23.56,23.56,0,0,0-1.42,9v67.13H625.88Z" transform="translate(-47 -47.42)"/><path class="cls-1" d="M291.75,621c1.42.82,2.88,1.64,4.34,2.4V621ZM172.1,500.29a305.45,305.45,0,0,0,34.08,49.91c.45,0,.94,0,1.43,0,31,0,50.33,5.47,65.85,12.18l13.4-51.18c-13.83-6.71-41.92-13.82-78.4-13.82A220.43,220.43,0,0,0,172.1,500.29Z" transform="translate(-47 -47.42)"/><path class="cls-3" d="M630.22,342.44l-1.54,62.44q-.18,7-.75,13.88c-7.81,93.29-74.18,171.43-163,200.85l-1,.32a82.25,82.25,0,0,1-48.86-.7l-2.36-.86c-63.32-23-116-70.55-140.6-133.29a235.86,235.86,0,0,1-16.18-80.28l-1.55-62.36A150.32,150.32,0,0,1,312.8,219.72h0a212,212,0,0,1,129.49-44.14h0a212,212,0,0,1,129.49,44.14h0A150.27,150.27,0,0,1,630.22,342.44Z" transform="translate(-47 -47.42)"/><polygon class="cls-1" points="602.27 269.66 569.31 340.64 568.13 266.56 602.27 269.66"/><polygon class="cls-1" points="187.13 290.08 208.91 357.38 230.64 235.98 187.13 290.08"/><path class="cls-4" d="M309.83,604.11" transform="translate(-47 -47.42)"/><path class="cls-1" d="M401.37,322.81,348,319l-7.64-45.79-9.54,51.51H269.71L267.81,298l-9.54,40.07H222s-5.8-58.4,78.16-127.09c16.71-13.67,48.64-29.53,60.93-38.3,49.49-35.3,47.9-48.31,47.9-48.31l5.73-24.81L426.18,132l11.45-22.9-1.91,34.35s101.13,3.81,154.55,57.24,64.88,116.39,64.88,116.39l-63,3.82-28.62-61.06,9.54,63-89.68,5.72-13.36-70.6,1.91,63Z" transform="translate(-47 -47.42)"/><rect class="cls-1" x="367.18" y="342.58" width="49.13" height="20.16"/><path class="cls-4" d="M354.13,608.42" transform="translate(-47 -47.42)"/><polygon class="cls-1" points="241.2 316.12 185.77 326.2 186.61 337.12 233.64 355.8 241.2 316.12"/><circle class="cls-5" cx="299.78" cy="362.1" r="72.44"/><path class="cls-3" d="M255.53,392.93c-2.68-10.25-9.16-19.44-18.62-24.22-5.1-2.58-11-3.9-17-1.81-20.58,7.21-.84,113.38,42,124.3l17.64-6.72Z" transform="translate(-47 -47.42)"/><polygon class="cls-1" points="543.54 316.12 598.97 326.2 598.13 337.12 551.1 355.8 543.54 316.12"/><path class="cls-3" d="M626.31,392.93c2.69-10.25,9.17-19.44,18.63-24.22,5.09-2.58,11-3.9,17-1.81,20.57,7.21.84,113.38-42,124.3l-17.63-6.72Z" transform="translate(-47 -47.42)"/><circle class="cls-5" cx="484.96" cy="362.1" r="72.44"/><path class="cls-3" d="M392.73,405.87a6.29,6.29,0,0,0,6.39-6.18,6.14,6.14,0,0,0-3.54-5.51,25.8,25.8,0,0,0,.92-3.49c.76-4.13.17-7.6-1.77-10.32-4.29-6-14.32-7.2-27-4.17-4.09-9.47-9.77-16.32-16.25-19.07,0-.14,0-.27,0-.41a6.39,6.39,0,0,0-12.78,0c0,.14,0,.27,0,.41-6.45,2.74-12.11,9.55-16.2,18.95-12.4-2.88-22.23-1.65-26.46,4.29-1.94,2.72-2.54,6.19-1.78,10.32,1.24,6.68,5.93,14.56,13.09,22.47a82,82,0,0,0-5.76,7.1,6.57,6.57,0,0,0-3.41-.95,6.28,6.28,0,0,0-6.39,6.17,6.17,6.17,0,0,0,3.77,5.63,26.37,26.37,0,0,0-1.3,4.52c-.76,4.13-.16,7.6,1.78,10.33,2.78,3.91,8,5.78,14.76,5.78A53.89,53.89,0,0,0,323.52,450c4.1,8.56,9.55,14.69,15.71,17.11a6.44,6.44,0,0,0,12.52-.3c5.9-2.6,11.14-8.62,15.09-16.92A54.46,54.46,0,0,0,380,451.74c6.76,0,12-1.87,14.76-5.78,1.94-2.73,2.53-6.2,1.77-10.33-1.23-6.68-5.93-14.55-13.09-22.47a79.42,79.42,0,0,0,6.39-8A6.62,6.62,0,0,0,392.73,405.87ZM339.2,359a6.47,6.47,0,0,0,11.9,0c5.9,2.58,11.09,8.92,14.9,17.69a105.36,105.36,0,0,0-20.58,8.1,104.73,104.73,0,0,0-21.06-8.22C328.16,367.83,333.33,361.53,339.2,359ZM372.64,412c0,3.27-.16,6.46-.44,9.56a141.45,141.45,0,0,1-26.77,18,141.34,141.34,0,0,1-27.38-18.51q-.37-4.41-.38-9.05,0-3.36.21-6.61a136.26,136.26,0,0,1,14.26-10.84,140.16,140.16,0,0,1,13.28-7.83,141.56,141.56,0,0,1,13.29,7.83,137.41,137.41,0,0,1,13.68,10.34C372.55,407.24,372.64,409.61,372.64,412Zm1.74-5.36c2.39,2.15,4.62,4.33,6.66,6.5-2.08,2.22-4.36,4.44-6.81,6.64.19-2.54.29-5.14.29-7.78C374.52,410.21,374.47,408.43,374.38,406.66ZM372,424.1a82.56,82.56,0,0,1-6.12,23.68,106,106,0,0,1-18.47-7.21c4.07-2.16,8.2-4.6,12.32-7.34A141.64,141.64,0,0,0,372,424.1Zm-28.48,16.46a103.92,103.92,0,0,1-18.94,7.34,82.42,82.42,0,0,1-6.23-24.31,141.24,141.24,0,0,0,12.86,9.64C335.28,436,339.41,438.4,343.47,440.56ZM316,419.28c-2.23-2-4.32-4.07-6.24-6.12,1.88-2,3.92-4,6.1-6-.07,1.6-.11,3.22-.11,4.85C315.79,414.49,315.88,416.9,316,419.28Zm2-16.34a86.55,86.55,0,0,1,5.6-24.75,103.61,103.61,0,0,1,19.81,7.57c-4.07,2.16-8.19,4.6-12.31,7.34A139,139,0,0,0,318.06,402.94Zm41.62-9.84c-4.11-2.74-8.24-5.18-12.3-7.34a104.37,104.37,0,0,1,19.31-7.44,86,86,0,0,1,5.51,24.12A139.55,139.55,0,0,0,359.68,393.1Zm-63.6-2.73c-.67-3.64-.18-6.66,1.47-9,2.44-3.42,7.11-5,13.23-5a50.45,50.45,0,0,1,11.11,1.42,88.7,88.7,0,0,0-5.84,26.91c-2.68,2.38-5.17,4.78-7.43,7.19C301.75,404.26,297.25,396.74,296.08,390.37ZM310.78,450c-6.12,0-10.79-1.63-13.23-5.05-1.65-2.32-2.14-5.34-1.47-9a25.81,25.81,0,0,1,1.26-4.37,7,7,0,0,0,.92.07,6.28,6.28,0,0,0,6.39-6.17,6,6,0,0,0-1.63-4.11,79.11,79.11,0,0,1,5.6-6.92c2.31,2.47,4.87,4.94,7.62,7.37a85.45,85.45,0,0,0,6.52,26.53A51.37,51.37,0,0,1,310.78,450Zm41,14.81a6.42,6.42,0,0,0-12.65.26c-5.37-2.39-10.14-7.89-13.82-15.5a106.56,106.56,0,0,0,20.13-8,107.56,107.56,0,0,0,19.66,7.84C361.52,456.82,356.93,462.26,351.76,464.79Zm43-28.84c.67,3.64.17,6.66-1.48,9-3.91,5.49-13.54,6.36-25.69,3.31A85.57,85.57,0,0,0,374,422.33c3-2.59,5.73-5.24,8.21-7.88C389.1,422.06,393.59,429.59,394.77,436Zm-12.54-24.08c-2.42-2.58-5.11-5.15-8-7.69a89.23,89.23,0,0,0-5.76-26.3,51.3,51.3,0,0,1,11.6-1.53c6.11,0,10.78,1.62,13.22,5,1.65,2.32,2.15,5.34,1.48,9a25,25,0,0,1-.86,3.26,6.64,6.64,0,0,0-1.18-.11,6.3,6.3,0,0,0-6.4,6.17,6.1,6.1,0,0,0,2,4.51A77.32,77.32,0,0,1,382.23,411.87Z" transform="translate(-47 -47.42)"/><path class="cls-3" d="M576.9,405.87a6.29,6.29,0,0,0,6.39-6.18,6.14,6.14,0,0,0-3.54-5.51,25.8,25.8,0,0,0,.92-3.49c.77-4.13.17-7.6-1.77-10.32-4.29-6-14.32-7.2-26.95-4.17-4.1-9.47-9.78-16.32-16.25-19.07,0-.14,0-.27,0-.41a6.4,6.4,0,0,0-12.79,0c0,.14,0,.27,0,.41-6.45,2.74-12.1,9.55-16.19,18.95-12.41-2.88-22.23-1.65-26.47,4.29-1.94,2.72-2.54,6.19-1.77,10.32,1.23,6.68,5.93,14.56,13.09,22.47a80.35,80.35,0,0,0-5.77,7.1,6.54,6.54,0,0,0-3.41-.95,6.28,6.28,0,0,0-6.39,6.17,6.17,6.17,0,0,0,3.77,5.63,27.24,27.24,0,0,0-1.29,4.52c-.77,4.13-.17,7.6,1.77,10.33,2.79,3.91,8,5.78,14.76,5.78A53.82,53.82,0,0,0,507.69,450c4.1,8.56,9.56,14.69,15.71,17.11a6.44,6.44,0,0,0,12.52-.3c5.91-2.6,11.14-8.62,15.1-16.92a54.32,54.32,0,0,0,13.12,1.84c6.77,0,12-1.87,14.76-5.78,1.94-2.73,2.54-6.2,1.77-10.33-1.23-6.68-5.93-14.55-13.09-22.47a79.42,79.42,0,0,0,6.39-8A6.65,6.65,0,0,0,576.9,405.87ZM523.37,359a6.48,6.48,0,0,0,11.91,0c5.89,2.58,11.08,8.92,14.89,17.69a105.61,105.61,0,0,0-20.58,8.1,104.73,104.73,0,0,0-21.06-8.22C512.34,367.83,517.5,361.53,523.37,359ZM556.81,412c0,3.27-.15,6.46-.43,9.56a141.93,141.93,0,0,1-26.78,18,140.89,140.89,0,0,1-27.37-18.51c-.25-2.94-.39-6-.39-9.05,0-2.24.08-4.44.21-6.61a137.32,137.32,0,0,1,14.26-10.84,140.16,140.16,0,0,1,13.28-7.83,139,139,0,0,1,13.29,7.83,137.57,137.57,0,0,1,13.69,10.34C556.72,407.24,556.81,409.61,556.81,412Zm1.74-5.36c2.4,2.15,4.63,4.33,6.66,6.5-2.08,2.22-4.36,4.44-6.81,6.64.19-2.54.29-5.14.29-7.78C558.69,410.21,558.64,408.43,558.55,406.66Zm-2.43,17.44A82.56,82.56,0,0,1,550,447.78a106,106,0,0,1-18.46-7.21c4.06-2.16,8.19-4.6,12.32-7.34A143,143,0,0,0,556.12,424.1Zm-28.47,16.46a104.28,104.28,0,0,1-18.95,7.34,82.73,82.73,0,0,1-6.23-24.31,141.24,141.24,0,0,0,12.86,9.64C519.45,436,523.58,438.4,527.65,440.56Zm-27.44-21.28c-2.23-2-4.32-4.07-6.23-6.12,1.87-2,3.91-4,6.1-6-.08,1.6-.12,3.22-.12,4.85C500,414.49,500.05,416.9,500.21,419.28Zm2-16.34a86.54,86.54,0,0,1,5.61-24.75,103.53,103.53,0,0,1,19.8,7.57c-4.07,2.16-8.19,4.6-12.31,7.34A140.26,140.26,0,0,0,502.23,402.94Zm41.63-9.84c-4.12-2.74-8.25-5.18-12.31-7.34a104.18,104.18,0,0,1,19.32-7.44,86.31,86.31,0,0,1,5.5,24.12A140.82,140.82,0,0,0,543.86,393.1Zm-63.61-2.73c-.67-3.64-.18-6.66,1.48-9,2.43-3.42,7.1-5,13.22-5a50.31,50.31,0,0,1,11.11,1.42,89,89,0,0,0-5.84,26.91c-2.68,2.38-5.17,4.78-7.43,7.19C485.92,404.26,481.43,396.74,480.25,390.37ZM495,450c-6.12,0-10.79-1.63-13.22-5.05-1.66-2.32-2.15-5.34-1.48-9a25.81,25.81,0,0,1,1.26-4.37,7,7,0,0,0,.92.07,6.28,6.28,0,0,0,6.39-6.17,6,6,0,0,0-1.63-4.11,79.11,79.11,0,0,1,5.6-6.92c2.32,2.47,4.87,4.94,7.62,7.37a85.73,85.73,0,0,0,6.52,26.53A51.31,51.31,0,0,1,495,450Zm41,14.81a6.42,6.42,0,0,0-12.66.26c-5.37-2.39-10.14-7.89-13.82-15.5a106.3,106.3,0,0,0,20.13-8,107.56,107.56,0,0,0,19.66,7.84C545.7,456.82,541.1,462.26,535.94,464.79Zm43-28.84c.67,3.64.18,6.66-1.48,9-3.9,5.49-13.54,6.36-25.69,3.31a85.57,85.57,0,0,0,6.42-25.91,112.93,112.93,0,0,0,8.21-7.88C573.27,422.06,577.76,429.59,578.94,436ZM566.4,411.87c-2.42-2.58-5.1-5.15-8-7.69a89.23,89.23,0,0,0-5.76-26.3,51.3,51.3,0,0,1,11.6-1.53c6.12,0,10.79,1.62,13.22,5,1.66,2.32,2.15,5.34,1.48,9a25,25,0,0,1-.86,3.26,6.56,6.56,0,0,0-1.18-.11,6.29,6.29,0,0,0-6.39,6.17,6.09,6.09,0,0,0,2,4.51A75.9,75.9,0,0,1,566.4,411.87Z" transform="translate(-47 -47.42)"/><path class="cls-2" d="M399.94,522.12S411.7,504.48,429.33,501s35.28,20,35.28,20Z" transform="translate(-47 -47.42)"/><path class="cls-2" d="M399.94,522.12s5.18,34.1,30.86,34.1c33.81,0,33.81-35.28,33.81-35.28Z" transform="translate(-47 -47.42)"/><ellipse class="cls-3" cx="375.13" cy="493.95" rx="5.73" ry="5.44"/><path class="cls-1" d="M322.58,623v13.06A304.94,304.94,0,0,0,356.48,648V623Z" transform="translate(-47 -47.42)"/><path class="cls-1" d="M478.89,651.81c-10.6-8.36-26.12-11.67-48.27-11.67a302.27,302.27,0,0,0-44.92,3.07v11.61A307.75,307.75,0,0,0,484,656.76,35.73,35.73,0,0,0,478.89,651.81Z" transform="translate(-47 -47.42)"/><path class="cls-1" d="M517,623v27.28a303,303,0,0,0,29.1-9c1.61-.58,3.19-1.19,4.77-1.79V623Z" transform="translate(-47 -47.42)"/><path class="cls-2" d="M90.44,826.94c11.62,0,19,7.77,19.21,18.14,0,9.89-7.59,17.9-19.45,17.9-11.38,0-19-8-18.74-17.9-.23-10.37,7.36-18.14,19-18.14" transform="translate(-47 -47.42)"/></svg>