<?xml version="1.0" encoding="UTF-8" standalone="no"?>
<!-- Created with Inkscape (http://www.inkscape.org/) -->

<svg
   xmlns:dc="http://purl.org/dc/elements/1.1/"
   xmlns:cc="http://creativecommons.org/ns#"
   xmlns:rdf="http://www.w3.org/1999/02/22-rdf-syntax-ns#"
   xmlns:svg="http://www.w3.org/2000/svg"
   xmlns="http://www.w3.org/2000/svg"
   xmlns:sodipodi="http://sodipodi.sourceforge.net/DTD/sodipodi-0.dtd"
   xmlns:inkscape="http://www.inkscape.org/namespaces/inkscape"
   width="375.93085"
   height="99.999992"
   viewBox="0 0 352.43516 93.749995"
   id="svg7639"
   version="1.1"
   inkscape:version="0.92.5 (2060ec1f9f, 2020-04-08)"
   sodipodi:docname="DeCreatieveSTEM.svg"
   inkscape:export-filename="/home/benny/ownCloud/ingegno/CreatieveSTEMLogo/CreatieveSTEMLogov04_large.png"
   inkscape:export-xdpi="299"
   inkscape:export-ydpi="299">
  <defs
     id="defs7641" />
  <sodipodi:namedview
     id="base"
     pagecolor="#ffffff"
     bordercolor="#666666"
     borderopacity="1.0"
     inkscape:pageopacity="0.0"
     inkscape:pageshadow="2"
     inkscape:zoom="0.97176471"
     inkscape:cx="75.810457"
     inkscape:cy="55.714272"
     inkscape:document-units="px"
     inkscape:current-layer="layer1"
     showgrid="false"
     fit-margin-top="0"
     fit-margin-left="0"
     fit-margin-right="0"
     fit-margin-bottom="0"
     inkscape:window-width="1440"
     inkscape:window-height="847"
     inkscape:window-x="0"
     inkscape:window-y="0"
     inkscape:window-maximized="1"
     units="px" />
  <metadata
     id="metadata7644">
    <rdf:RDF>
      <cc:Work
         rdf:about="">
        <dc:format>image/svg+xml</dc:format>
        <dc:type
           rdf:resource="http://purl.org/dc/dcmitype/StillImage" />
        <dc:title></dc:title>
      </cc:Work>
    </rdf:RDF>
  </metadata>
  <g
     inkscape:label="Laag 1"
     inkscape:groupmode="layer"
     id="layer1"
     transform="translate(-51.472284,-211.95647)">
    <g
       id="g866"
       transform="matrix(1.0101126,0,0,1.0101126,-0.52052096,-3.0915011)">
      <path
         style="fill:none;stroke:#000000;stroke-width:1.05670285;stroke-miterlimit:4;stroke-dasharray:none;stroke-opacity:1"
         id="path7630"
         d="m 135.9565,255.57552 c -6e-5,-1.17032 0.732,-2.16922 1.76281,-2.56543 -0.27218,-1.13986 -0.72164,-2.21111 -1.31797,-3.18238 -0.35506,0.15795 -0.73685,0.23693 -1.11848,0.23693 -0.70292,0 -1.40563,-0.26795 -1.94215,-0.80435 -0.82779,-0.8278 -1.01633,-2.05215 -0.56697,-3.06157 -0.97105,-0.59672 -2.04196,-1.04663 -3.18182,-1.31925 -0.3956,1.03198 -1.395,1.76498 -2.56611,1.76498 -1.17099,0 -2.17038,-0.733 -2.56604,-1.76498 -1.13986,0.27262 -2.21072,0.72253 -3.18176,1.3193 0.44935,1.00931 0.26082,2.23361 -0.56704,3.06157 -0.5364,0.5364 -1.23921,0.80441 -1.94215,0.80441 -0.38173,0 -0.76335,-0.079 -1.11852,-0.23699 -0.59627,0.97122 -1.04585,2.04241 -1.31797,3.18233 1.03086,0.3961 1.76286,1.39511 1.76286,2.56543 0,1.17005 -0.73139,2.16855 -1.76164,2.56499 0.2728,1.13986 0.7227,2.21066 1.31954,3.18176 0.35427,-0.15711 0.73506,-0.2357 1.11568,-0.2357 0.70299,0 1.40569,0.268 1.94215,0.8044 0.82657,0.82657 1.01583,2.04853 0.56892,3.05706 0.97122,0.59649 2.04202,1.04613 3.18188,1.31847 0.39699,-1.02919 1.39494,-1.75975 2.56409,-1.75975 1.16916,0 2.16711,0.73045 2.56405,1.75975 1.13997,-0.27234 2.21071,-0.72203 3.18198,-1.31858 -0.44684,-1.00842 -0.25764,-2.23038 0.56899,-3.05695 0.53628,-0.53646 1.23911,-0.80446 1.94198,-0.80446 0.38073,0 0.76135,0.0786 1.11574,0.23576 0.59683,-0.9711 1.04674,-2.0419 1.31953,-3.18176 -1.03025,-0.3965 -1.76158,-1.39505 -1.76158,-2.56499 z m -8.88055,4.44749 c -2.46731,0 -4.45563,-1.99946 -4.45563,-4.45563 0,-2.45621 1.98832,-4.45562 4.45563,-4.45562 2.46723,0 4.45562,1.99941 4.45562,4.45562 0,2.45617 -1.98839,4.45563 -4.45562,4.45563 z"
         inkscape:connector-curvature="0" />
      <g
         transform="matrix(0.68617068,0,0,0.68617068,-7.6227914,-51.110495)"
         id="g7">
        <path
           inkscape:connector-curvature="0"
           id="path9"
           d="m 117.857,478.723 v -11.19 c 0,-5.48 1.461,-9.651 4.384,-12.515 2.924,-2.861 6.791,-4.293 11.602,-4.293 4.812,0 8.678,1.432 11.601,4.293 2.923,2.863 4.385,7.034 4.385,12.515 v 11.19 z m 24.321,-19.754 c -1.933,-1.964 -4.711,-2.945 -8.335,-2.945 -3.623,0 -6.401,0.981 -8.336,2.945 -1.933,1.964 -2.899,4.834 -2.899,8.609 v 5.938 h 22.471 v -5.938 c -0.001,-3.775 -0.967,-6.645 -2.901,-8.609 z" />
        <path
           inkscape:connector-curvature="0"
           id="path11"
           d="m 117.857,444.879 v -22.014 h 4.75 v 16.807 h 8.724 v -15.438 h 4.75 v 15.438 h 8.997 v -17.081 h 4.75 v 22.288 z" />
      </g>
      <g
         transform="matrix(0.68617068,0,0,0.68617068,-7.6227914,-51.110495)"
         id="g13">
        <path
           inkscape:connector-curvature="0"
           id="path15"
           d="m 226.938,495.578 c 0,-2.803 1.073,-4.957 3.22,-6.463 2.147,-1.508 4.819,-2.262 8.016,-2.262 3.867,0 7.201,0.807 10.002,2.42 v 4.979 c -2.71,-1.826 -5.908,-2.709 -9.591,-2.648 -4.232,0 -6.349,1.273 -6.349,3.82 0,1.229 0.632,2.256 1.898,3.078 1.265,0.824 2.79,1.545 4.574,2.16 1.783,0.613 3.581,1.234 5.394,1.859 1.812,0.627 3.332,1.662 4.561,3.107 1.228,1.447 1.843,3.242 1.843,5.385 0,3.137 -1.135,5.43 -3.403,6.875 -2.269,1.447 -5.169,2.154 -8.701,2.123 -4.263,0 -8.039,-0.928 -11.327,-2.785 v -5.115 c 3.258,2.1 6.912,3.15 10.962,3.15 4.78,0 7.17,-1.324 7.17,-3.973 0,-1.156 -0.45,-2.146 -1.347,-2.969 -0.898,-0.822 -2.018,-1.465 -3.357,-1.932 -1.34,-0.463 -2.809,-0.975 -4.408,-1.529 -1.599,-0.554 -3.076,-1.16 -4.43,-1.814 -1.355,-0.654 -2.482,-1.621 -3.38,-2.9 -0.898,-1.279 -1.347,-2.8 -1.347,-4.566 z" />
        <path
           inkscape:connector-curvature="0"
           id="path17"
           d="m 252.149,487.447 h 26.353 v 4.795 h -10.55 v 27.176 h -5.207 v -27.176 h -10.596 z" />
        <path
           inkscape:connector-curvature="0"
           id="path19"
           d="m 283.024,487.447 h 22.014 v 4.75 H 288.23 v 8.725 h 15.438 v 4.75 H 288.23 v 8.996 h 17.082 v 4.75 h -22.288 z" />
        <path
           inkscape:connector-curvature="0"
           id="path21"
           d="m 340.394,487.447 h 4.654 v 31.971 h -5.207 v -22.379 l -10.06,15.162 h -3.14 l -10.094,-15.215 v 22.432 h -5.207 v -31.971 h 4.69 l 12.181,18.363 z" />
      </g>
      <g
         transform="matrix(0.68617068,0,0,0.68617068,-7.6227914,-51.110495)"
         id="g23">
        <path
           inkscape:connector-curvature="0"
           id="path25"
           d="m 275.562,422.102 h 34.104 v 5.779 h -28.035 v 16.402 h 25.867 v 5.779 h -25.867 v 16.836 H 310.1 v 5.78 h -34.538 z" />
        <path
           inkscape:connector-curvature="0"
           id="path27"
           d="m 320.793,472.679 h -6.575 l 22.036,-50.577 h 6.722 l 21.964,50.577 h -6.503 l -5.172,-12.211 h -27.304 z m 18.024,-42.583 -10.47,24.736 h 22.532 L 340.426,430.16 c -0.1,-0.238 -0.373,-0.884 -0.819,-1.934 -0.431,1.063 -0.695,1.686 -0.79,1.87 z" />
        <path
           inkscape:connector-curvature="0"
           id="path29"
           d="m 360.75,422.102 h 41.618 v 5.779 h -17.774 v 44.798 h -6.069 V 427.881 H 360.75 Z" />
        <path
           inkscape:connector-curvature="0"
           id="path31"
           d="m 411.472,422.102 h 6.069 v 50.577 h -6.069 z" />
        <path
           inkscape:connector-curvature="0"
           id="path33"
           d="m 430.835,422.102 h 34.104 v 5.779 h -28.035 v 16.402 h 25.867 v 5.779 h -25.867 v 16.836 h 28.468 v 5.78 h -34.538 v -50.576 z" />
        <path
           inkscape:connector-curvature="0"
           id="path35"
           d="m 497.019,472.679 h -6.284 L 469.78,422.102 h 6.503 l 17.554,43.879 17.633,-43.879 h 6.503 z" />
        <path
           inkscape:connector-curvature="0"
           id="path37"
           d="m 525.415,422.102 h 34.104 v 5.779 h -28.035 v 16.402 h 25.867 v 5.779 h -25.867 v 16.836 h 28.468 v 5.78 h -34.538 v -50.576 z" />
      </g>
      <g
         transform="matrix(0.68617068,0,0,0.68617068,-7.6227914,-51.110495)"
         id="g39">
        <path
           inkscape:connector-curvature="0"
           id="path41"
           d="m 230.824,472.679 h -6.068 v -50.578 h 19.797 c 3.323,0 6.333,0.446 9.031,1.337 2.697,0.892 5.021,2.528 6.972,4.913 1.951,2.385 2.926,5.408 2.926,9.068 0,4.335 -1.252,7.707 -3.757,10.115 -2.503,2.408 -5.754,3.973 -9.752,4.695 l 17.122,20.449 h -7.587 l -16.605,-19.941 h -12.078 v 19.942 z m 0,-44.797 v 19.074 h 14.018 c 3.564,0 6.539,-0.733 8.923,-2.203 2.385,-1.469 3.576,-3.914 3.576,-7.334 0,-3.469 -1.191,-5.926 -3.576,-7.37 -2.384,-1.445 -5.358,-2.167 -8.923,-2.167 z" />
      </g>
      <g
         transform="matrix(0.68617068,0,0,0.68617068,-7.6227914,-51.110495)"
         id="g43">
        <g
           id="g45">
          <polygon
             id="polygon47"
             points="188.257,485.581 193.157,480.632 207.942,487.114 205.16,479.397 211.275,477.194 219.186,499.141 " />
        </g>
        <g
           id="g49">
          <path
             inkscape:connector-curvature="0"
             id="path51"
             d="m 192.88,480.511 c -16.017,-1.647 -28.55,-15.219 -28.55,-31.664 0,-17.553 14.279,-31.832 31.832,-31.832 6.897,0 13.284,2.212 18.504,5.955 0.959,-1.955 1.939,-3.945 2.906,-5.904 -6.118,-4.135 -13.487,-6.551 -21.41,-6.551 -21.137,0 -38.332,17.195 -38.332,38.332 0,21.137 17.195,38.334 38.332,38.334 3.208,0 6.321,-0.406 9.3,-1.153 z" />
          <path
             inkscape:connector-curvature="0"
             id="path53"
             d="m 205.119,479.389 2.233,6.112 c 5.199,-1.594 9.936,-4.259 13.941,-7.746 l -4.276,-4.889 c -3.41,2.965 -7.454,5.214 -11.898,6.523 z" />
        </g>
      </g>
      <g
         transform="matrix(0.68617068,0,0,0.68617068,-7.6227914,-51.110495)"
         id="g55">
        <path
           style="fill:none;stroke:#000000;stroke-width:6.5;stroke-miterlimit:10"
           inkscape:connector-curvature="0"
           id="path57"
           d="M 219.282,516.086 H 99.294 c -5.457,0 -9.921,-4.465 -9.921,-9.921 V 397.923 c 0,-5.456 4.464,-9.921 9.921,-9.921 h 482.141 c 5.457,0 9.922,4.465 9.922,9.921 v 108.242 c 0,5.456 -4.465,9.921 -9.922,9.921 H 341.262"
           stroke-miterlimit="10" />
      </g>
    </g>
  </g>
</svg>
