<?xml version="1.0" encoding="UTF-8" standalone="no"?>
<svg
   xmlns:dc="http://purl.org/dc/elements/1.1/"
   xmlns:cc="http://creativecommons.org/ns#"
   xmlns:rdf="http://www.w3.org/1999/02/22-rdf-syntax-ns#"
   xmlns:svg="http://www.w3.org/2000/svg"
   xmlns="http://www.w3.org/2000/svg"
   xmlns:sodipodi="http://sodipodi.sourceforge.net/DTD/sodipodi-0.dtd"
   xmlns:inkscape="http://www.inkscape.org/namespaces/inkscape"
   viewBox="0 0 1152.7626 991.13774"
   version="1.1"
   id="svg168"
   sodipodi:docname="FreeGirlImage.svg"
   width="1152.7626"
   height="991.13776"
   inkscape:version="0.92.5 (2060ec1f9f, 2020-04-08)">
  <metadata
     id="metadata172">
    <rdf:RDF>
      <cc:Work
         rdf:about="">
        <dc:format>image/svg+xml</dc:format>
        <dc:type
           rdf:resource="http://purl.org/dc/dcmitype/StillImage" />
        <dc:title></dc:title>
      </cc:Work>
    </rdf:RDF>
  </metadata>
  <sodipodi:namedview
     pagecolor="#ffffff"
     bordercolor="#666666"
     borderopacity="1"
     objecttolerance="10"
     gridtolerance="10"
     guidetolerance="10"
     inkscape:pageopacity="0"
     inkscape:pageshadow="2"
     inkscape:window-width="824"
     inkscape:window-height="480"
     id="namedview170"
     showgrid="false"
     fit-margin-top="0"
     fit-margin-left="0"
     fit-margin-right="0"
     fit-margin-bottom="0"
     inkscape:zoom="0.23150873"
     inkscape:cx="-69.261577"
     inkscape:cy="430.26285"
     inkscape:window-x="0"
     inkscape:window-y="0"
     inkscape:window-maximized="0"
     inkscape:current-layer="svg168" />
  <defs
     id="defs4">
    <style
       id="style2">.cls-1{fill:#e63315;}.cls-2{fill:#227bbf;}.cls-3{fill:#b85639;}.cls-4{fill:#ed6c48;}.cls-5{fill:#c85d3d;}.cls-6{fill:#dcd490;}.cls-7{fill:#1e6298;}.cls-8{fill:#1d71b8;}.cls-9{fill:#164a73;}.cls-10,.cls-12{fill:#90a4b0;}.cls-10{opacity:0.59;}.cls-11{fill:#8b2303;}.cls-12{opacity:0.53;}.cls-13{fill:#f6f1a7;}.cls-14,.cls-15{fill:none;stroke:#1e6298;stroke-miterlimit:10;}.cls-14{stroke-width:0.23px;}.cls-15{stroke-width:0.22px;}</style>
    <linearGradient
       id="27534bda-5ea1-4910-bcb7-b6f2fadd52ae"
       x1="685.65997"
       y1="732.28003"
       x2="685.65997"
       y2="530.48999"
       gradientUnits="userSpaceOnUse">
      <stop
         offset="0"
         stop-color="gray"
         stop-opacity="0.25"
         id="stop6220" />
      <stop
         offset="0.54"
         stop-color="gray"
         stop-opacity="0.12"
         id="stop6222" />
      <stop
         offset="1"
         stop-color="gray"
         stop-opacity="0.1"
         id="stop6224" />
    </linearGradient>
  </defs>
  <path
     d="m 1151.5209,570.30235 c -6.95,34.06 -42.63,51.14 -62.62,76.55 -37.67,47.89 -23,117.84 0.9,173.86 8,18.76 17.08,38.61 13.69,58.72 -4.13,24.6 -26.08,42.58 -49.13,52.12 -42,17.37 -92.29997,13.23 -130.90997,-10.79 -33.36,-20.75 -57.26,-54.51 -91.19,-74.32 -56.79,-33.15 -129.07,-20.63 -190.74,2.21 -43.62,16.15 -91.32,37.17 -134.67,20.28 -30.5,-11.88 -51.59,-40.8 -63.08,-71.45 -5.54,-14.8 -9.57,-30.82 -20.16,-42.55 -6.3,-7 -14.52,-11.93 -22.93,-16.1 -76.88,-38.12 -174,-17.7 -248.63,-60 -50.42,-28.55 -82.71,-82.4 -97,-138.56 -14.29,-56.16 -12.63,-115 -9,-172.88 2.58,-41.09999 7.21,-85.00004 33.47,-116.70004 27.78,-33.53 75.41,-46.02 118.55,-39.63 43.14,6.39 82.15,29.11 116.52,55.88 43,33.47002 82.78,75.13004 135.51,88.69004 35.91,9.23 73.68,4.18 110.72,2.43 61.92,-2.92 123.86,3.58 185.43,10.7 30,3.47 60.1,7.11 89.84,12.39 q 10,1.77 20,3.81 5,1 10,2.14 c 2.6,0.57 5.19,1.17 7.78,1.78 q 6.13,1.44 12.22,3 c 11.66,3 23.21,6.45 34.64,10.35 39.74,13.57 71.6,38.2 109.12997,55.41 24.46,11.22 51.13,14.32 74.29,28.6 28.53,17.62 54.68,48.24 47.37,84.06 z"
     id="path6243"
     inkscape:connector-curvature="0"
     style="opacity:0.1;fill:#4285f4" />
  <g
     id="g3278"
     transform="matrix(2.2025693,0,0,2.2025693,-34.20598,961.11837)">
    <path
       style="fill:#b85639;stroke-width:2.74152541"
       inkscape:connector-curvature="0"
       id="path16"
       d="m 234.00371,-75.327161 1.45301,6.332923 a 26.729874,26.729874 0 0 0 4.4961,-1.15144 c 6.33293,-2.741526 7.26505,-9.814662 -3.01567,-6.086187 a 29.992289,29.992289 0 0 1 -2.93344,0.904704 z"
       class="cls-3" />
    <path
       style="fill:#ed6c48;stroke-width:2.74152541"
       inkscape:connector-curvature="0"
       id="path18"
       d="m 178.43299,-158.80661 c 0,0 7.1828,15.35254 73.41805,17.46351 a 42.055001,42.055001 0 0 0 30.15678,-12.14495 l 67.27704,-61.21827 1.64492,16.66848 c 1.6175,10.47262 6.19584,8.82771 6.19584,8.82771 0,0 -40.73907,66.6739 -58.17517,83.67136 -10.77419,10.527455 -24.18025,15.681523 -57.18822,19.190676 a 135.59585,135.59585 0 0 1 -59.1347,-6.853814 z"
       class="cls-4" />
    <path
       style="fill:#b85639;stroke-width:2.74152541"
       inkscape:connector-curvature="0"
       id="path20"
       d="m 348.68172,-213.39039 15.02356,-33.83042 2.08356,-12.47394 c 0,0 5.09924,1.20627 4.79767,9.51309 l -1.83682,12.47394 1.50784,1.17886 12.74809,-14.5575 10.08882,5.81203 -2.02873,16.20242 -6.27809,4.71542 -10.39039,8.22458 -10.39038,6.8264 -16.61364,4.63318 z"
       class="cls-3" />
    <path
       style="fill:#ed6c48;stroke-width:2.74152541"
       inkscape:connector-curvature="0"
       id="path22"
       d="m 376.3163,-256.04852 0.38382,5.67496 a 13.214153,13.214153 0 0 1 2.49478,0.60313 38.079789,38.079789 0 0 1 9.23894,3.70106 l -2.74152,3.89297 8.8003,5.48305 2.74152,-10.44521 a 1.7545763,1.7545763 0 0 0 -1.37076,-2.16581 136.82954,136.82954 0 0 1 -14.94132,-5.78462 6.661907,6.661907 0 0 0 -4.60576,-0.95953 z"
       class="cls-4" />
    <path
       style="fill:#ed6c48;stroke-width:2.74152541"
       inkscape:connector-curvature="0"
       id="path24"
       d="m 375.57609,-266.90496 0.38381,5.48305 a 11.349916,11.349916 0 0 1 2.54962,1.01436 38.107204,38.107204 0 0 1 8.60839,4.96216 l -3.20758,3.48174 7.97784,6.79898 4.22195,-9.92432 a 1.7819916,1.7819916 0 0 0 -1.04178,-2.35771 135.65068,135.65068 0 0 1 -14.14628,-8.00525 6.5522459,6.5522459 0 0 0 -5.34597,-1.45301 z"
       class="cls-4" />
    <polygon
       transform="matrix(2.7415255,0,0,2.7415255,-60.463541,-345.55933)"
       style="fill:#c85d3d"
       id="polygon26"
       points="166.19,38.67 164.69,36.69 163.74,36.29 162.77,37.71 164.62,38.97 165.41,41.59 "
       class="cls-5" />
    <path
       style="fill:#ed6c48;stroke-width:2.74152541"
       inkscape:connector-curvature="0"
       id="path28"
       d="m 347.39321,-204.56267 6.52483,18.61495 c 0,0 5.48305,-5.01699 12.30945,-11.84339 8.22457,-8.22457 18.91652,-18.86169 25.1672,-26.45572 3.67365,-4.44127 5.89428,-7.81334 5.29115,-9.01962 -2.46738,-4.90733 -5.48305,-9.95173 -5.48305,-9.95173 l -2.74153,-1.12403 -8.22458,2.93343 a 23.357797,23.357797 0 0 1 4.98958,4.00263 l 2.30288,-1.01436 1.69975,6.74415 0.24673,0.95953 c 0,0 -7.95042,-2.74152 -17.38127,6.36034 -1.42559,1.37077 -16.44915,13.21416 -22.26118,17.90216 z"
       class="cls-4" />
    <polygon
       transform="matrix(2.7415255,0,0,2.7415255,-60.463541,-345.55933)"
       style="fill:#c85d3d"
       id="polygon30"
       points="166.15,33.92 162.45,33.7 165.74,34.82 "
       class="cls-5" />
    <polygon
       transform="matrix(2.7415255,0,0,2.7415255,-60.463541,-345.55933)"
       style="fill:#c85d3d"
       id="polygon32"
       points="164.84,41.89 164.1,41.89 163.69,40.17 "
       class="cls-5" />
    <path
       style="fill:#b85639;stroke-width:2.74152541"
       inkscape:connector-curvature="0"
       id="path34"
       d="m 348.68172,-205.74153 -77.11911,60.64254 c 0,0 -3.92038,3.92039 -15.35254,4.57835 -11.43216,0.65797 -41.83568,10.47263 -41.83568,10.47263 l 0.98695,-14.72199 30.3761,2.96085 5.15407,-0.3564 c 9.21153,-0.63055 18.28598,-1.17886 25.57843,-6.85382 l 25.16721,-22.53534 47.70254,-43.15161 z"
       class="cls-3" />
    <path
       style="fill:#dcd490;stroke-width:2.74152541"
       inkscape:connector-curvature="0"
       id="path36"
       d="m 217.30782,-144.11204 -6.52483,58.833141 -21.05491,-57.243051 a 31.692035,31.692035 0 0 0 -6.36034,-10.39038 l -5.9217,-6.38776 a 41.972755,41.972755 0 0 0 19.19068,10.44521 z"
       class="cls-6" />
    <path
       style="fill:#1e6298;stroke-width:2.74152541"
       inkscape:connector-curvature="0"
       id="path38"
       d="m 192.27769,-330.2342 v 0 0 h 0.1645 l 0.30156,0.27415 0.63056,0.57572 1.12402,1.37076 2.54962,2.30288 c 1.69975,1.56267 3.48174,3.0431 5.23631,4.52352 a 112.21064,112.21064 0 0 0 11.24026,8.22458 48.058942,48.058942 0 0 0 6.30551,3.45432 23.083645,23.083645 0 0 0 3.45432,1.34335 c 1.12402,0.41123 2.27546,0.74021 3.42691,1.06919 a 65.357968,65.357968 0 0 0 14.22851,2.11098 64.371019,64.371019 0 0 0 7.26505,-0.27416 53.898391,53.898391 0 0 0 7.18279,-1.23368 58.531569,58.531569 0 0 0 6.93606,-2.24805 c 2.22064,-0.90471 4.33161,-1.91907 6.38776,-2.74153 a 56.886654,56.886654 0 0 1 6.08618,-2.49479 60.971527,60.971527 0 0 1 6.2781,-1.8094 58.970214,58.970214 0 0 1 7.89559,-1.17886 h 1.83682 q 1.64492,0 3.28983,0 c 1.6175,0 3.26242,0 4.87992,0.27415 l 1.83682,-2.93343 1.09661,0.43865 -1.53525,2.74152 a 47.647713,47.647713 0 0 1 8.0875,1.69975 v 0 l 1.09661,0.41123 a 47.455806,47.455806 0 0 1 6.57966,2.74152 v 0 l 1.06919,0.63055 h 0.16449 c 0.57572,0.30157 1.12403,0.63055 1.67233,0.95954 a 36.983179,36.983179 0 0 1 3.37208,2.35771 v 0 l 0.7128,0.65796 v 0 a 39.944027,39.944027 0 0 1 5.23631,5.09924 l 0.52089,0.57572 0.52089,0.57572 c 1.31593,1.53526 2.74153,3.12534 4.19453,4.60576 a 28.950509,28.950509 0 0 0 5.75721,4.41386 31.554959,31.554959 0 0 0 13.70763,4.1397 35.639831,35.639831 0 0 0 7.07313,-0.32898 c 2.30288,-0.32898 4.55093,-0.74021 6.74415,-0.87729 a 18.505297,18.505297 0 0 1 3.26242,0 c 1.06919,0 2.22063,0.32899 3.31725,0.54831 2.13839,0.43864 4.44127,1.15144 4.30419,3.15275 a 12.117543,12.117543 0 0 1 -0.68538,3.15276 l -1.04178,3.26241 c -0.7128,2.16581 -1.45301,4.33161 -2.24805,6.47 l 0.57572,0.24674 c 0.93212,-2.11097 1.78199,-4.24936 2.74152,-6.38775 l 1.20628,-3.20759 0.57572,-1.64491 a 7.0183053,7.0183053 0 0 0 0.35639,-1.86424 3.5913984,3.5913984 0 0 0 -0.43864,-2.02873 3.7833052,3.7833052 0 0 0 -1.45301,-1.48042 12.254619,12.254619 0 0 0 -3.42691,-1.31594 c -1.12402,-0.27415 -2.22063,-0.5483 -3.4269,-0.74021 a 22.699831,22.699831 0 0 0 -3.5914,-0.19191 c -2.38513,0 -4.68801,0.38382 -6.90865,0.57572 a 31.335636,31.335636 0 0 1 -6.60707,0 28.292543,28.292543 0 0 1 -12.22721,-4.27678 25.551018,25.551018 0 0 1 -4.93474,-4.44127 c -1.50784,-1.59008 -2.90602,-3.34466 -4.35903,-5.12665 a 5.0169917,5.0169917 0 0 0 -0.30156,-0.3564 c -0.30157,-0.38381 -0.57572,-0.74021 -0.90471,-1.09661 a 45.344832,45.344832 0 0 0 -9.18411,-8.22457 53.295256,53.295256 0 0 0 -27.08627,-8.49873 h -0.41123 -1.48042 a 65.248307,65.248307 0 0 0 -12.41911,0.98695 68.072078,68.072078 0 0 0 -6.99089,1.64491 c -2.3303,0.65797 -4.60577,1.53526 -6.77157,2.38513 -2.16581,0.84987 -4.22195,1.75457 -6.27809,2.5222 a 54.666018,54.666018 0 0 1 -6.14102,1.89165 55.269154,55.269154 0 0 1 -12.77551,1.59009 60.752205,60.752205 0 0 1 -12.96742,-1.20627 c -1.06919,-0.21932 -2.1658,-0.43865 -3.20758,-0.7128 a 27.853899,27.853899 0 0 1 -3.04309,-0.9047 63.411485,63.411485 0 0 1 -6.00395,-2.74153 c -4.03004,-2.05614 -7.95042,-4.35902 -11.81597,-6.8264 -1.94648,-1.17885 -3.86555,-2.43995 -5.78462,-3.64622 l -2.90602,-1.83683 -1.48042,-0.93212 -0.74021,-0.43864 -0.38382,-0.21932 h -0.21932 v 0 c 0,0 0,0 -0.32898,0 z"
       class="cls-7" />
    <path
       style="fill:#1d71b8;stroke-width:2.74152541"
       inkscape:connector-curvature="0"
       id="path40"
       d="m 322.5824,-308.05526 v 0 l 0.74021,0.57572 v 0 z"
       class="cls-8" />
    <path
       style="fill:#1d71b8;stroke-width:2.74152541"
       inkscape:connector-curvature="0"
       id="path42"
       d="m 316.24948,-311.97564 v 0 l 1.06919,0.60313 z"
       class="cls-8" />
    <path
       style="fill:#1d71b8;stroke-width:2.74152541"
       inkscape:connector-curvature="0"
       id="path44"
       d="m 308.57321,-315.07357 v 0 l 1.12402,0.3564 z"
       class="cls-8" />
    <path
       style="fill:#1e6298;stroke-width:2.74152541"
       inkscape:connector-curvature="0"
       id="path46"
       d="m 299.06011,-316.88297 1.39818,0.16449 1.53526,-2.74153 -1.09661,-0.43864 z"
       class="cls-7" />
    <path
       style="fill:#1e6298;stroke-width:2.74152541"
       inkscape:connector-curvature="0"
       id="path48"
       d="m 348.02376,-220.10712 a 20.040551,20.040551 0 0 0 40.0811,0 4.9073306,4.9073306 0 0 0 0,-0.65797 3.5365679,3.5365679 0 0 0 -0.41123,-1.28852 v 0 c -2.30288,-1.2611 -10.11623,-2.22063 -19.43741,-2.22063 -9.89691,0 -18.09407,1.06919 -19.82123,2.46737 a 3.8381357,3.8381357 0 0 0 -0.24674,0.79504 3.3994916,3.3994916 0 0 0 -0.16449,0.90471 z"
       class="cls-7" />
    <path
       style="fill:#164a73;stroke-width:2.74152541"
       inkscape:connector-curvature="0"
       id="path50"
       d="m 348.02376,-221.25856 a 0.43864408,0.43864408 0 0 0 0,0.24673 c 0.87729,1.53526 9.45826,2.74153 19.93089,2.74153 9.89691,0 18.12148,-1.09661 19.73898,-2.49479 a 0.71279663,0.71279663 0 0 0 0.30157,-0.49347 c 0,-0.27416 -0.24674,-0.54831 -0.68538,-0.79505 v 0 c -2.30288,-1.2611 -10.08881,-2.22063 -19.35517,-2.22063 -9.81466,0 -17.95699,1.06919 -19.68415,2.46737 a 0.71279663,0.71279663 0 0 0 -0.24674,0.54831 z"
       class="cls-9" />
    <path
       style="fill:#ed6c48;stroke-width:2.74152541"
       inkscape:connector-curvature="0"
       id="path52"
       d="m 373.68444,-239.10589 a 6.6070765,6.6070765 0 0 0 8.58097,2.8786 l 2.90602,-1.17886 a 23.357797,23.357797 0 0 0 -4.98958,-3.97521 z"
       class="cls-4" />
    <path
       style="fill:#ed6c48;stroke-width:2.74152541"
       inkscape:connector-curvature="0"
       id="path54"
       d="m 364.47291,-251.38793 a 12.282034,12.282034 0 0 0 6.03136,1.20627 c 0.98695,0 3.15275,-0.38381 5.01699,-0.30157 h 1.09661 l -0.38381,-5.67495 a 11.541822,11.541822 0 0 0 -1.31594,0.32898 c -1.31593,0.49347 -8.22457,1.59008 -10.71936,2.13839 -0.41123,0.21932 -0.13708,2.05614 0.27415,2.30288 z"
       class="cls-4" />
    <path
       style="fill:#ed6c48;stroke-width:2.74152541"
       inkscape:connector-curvature="0"
       id="path56"
       d="m 364.25359,-264.08119 a 12.282034,12.282034 0 0 0 5.81203,2.08356 c 0.95954,0.21932 3.18017,0 5.017,0.43864 a 4.5783476,4.5783476 0 0 1 0.87728,0.21932 l -0.38381,-5.48305 h -0.3564 c -1.37076,0.30157 -8.47131,0.3564 -10.9661,0.54831 -0.46606,0.0274 -0.43864,1.89165 0,2.19322 z"
       class="cls-4" />
    <path
       style="opacity:0.58999999;fill:#90a4b0;stroke-width:2.74152541"
       inkscape:connector-curvature="0"
       id="path58"
       d="m 344.54202,-221.23115 a 23.549704,23.549704 0 0 0 21.68547,23.44004 22.480509,22.480509 0 0 0 4.4961,0 23.577119,23.577119 0 0 0 20.75335,-21.08233 24.673729,24.673729 0 0 0 0,-5.31856 22.672416,22.672416 0 0 0 -2.22064,-7.42953 23.357797,23.357797 0 0 0 -4.00263,-5.72979 l -2.90601,1.17886 a 6.6070765,6.6070765 0 0 1 -8.58098,-2.8786 l 6.49742,-2.30289 a 25.057543,25.057543 0 0 0 -2.96085,-1.50783 l -0.52089,-7.45695 h -1.09661 c -1.86424,0 -4.03004,0.38381 -5.01699,0.30156 a 12.282034,12.282034 0 0 1 -6.03136,-1.20627 c -0.49347,-0.24673 -0.76762,-2.08356 -0.27415,-2.19322 2.38513,-0.5483 9.40343,-1.64491 10.71937,-2.13839 a 11.541822,11.541822 0 0 1 1.31593,-0.32898 l -0.3564,-5.29115 a 4.5783476,4.5783476 0 0 0 -0.87729,-0.21932 c -1.83682,-0.3564 -4.05746,-0.21932 -5.01699,-0.43864 a 12.282034,12.282034 0 0 1 -5.81203,-2.08356 c -0.43865,-0.30157 -0.46606,-2.16581 0,-2.19322 2.43995,-0.19191 9.5405,-0.24674 10.9661,-0.54831 h 0.3564 v 0 l 1.64491,-0.82245 a 3.1253391,3.1253391 0 0 0 -3.09792,-3.09793 h -0.30157 a 24.673729,24.673729 0 0 1 -11.48699,0 h -0.30157 a 3.0979238,3.0979238 0 0 0 -3.12534,2.76894 l 1.45301,0.82246 -1.45301,24.07059 a 23.494874,23.494874 0 0 0 -14.44784,21.68547 z"
       class="cls-10" />
    <polygon
       transform="matrix(2.7415255,0,0,2.7415255,-60.463541,-345.55933)"
       style="fill:#e63315"
       id="polygon60"
       points="135.71,20.5 136.19,21.15 139.97,13.93 139.98,13.92 139.72,13.68 139.7,13.72 "
       class="cls-1" />
    <path
       style="fill:#e63315;stroke-width:2.74152541"
       inkscape:connector-curvature="0"
       id="path62"
       d="m 357.31753,-290.34501 1.28852,1.782 5.31856,-10.08882 h -1.69975 z"
       class="cls-1" />
    <path
       style="fill:#e63315;stroke-width:2.74152541"
       inkscape:connector-curvature="0"
       id="path64"
       d="m 363.18439,-290.72882 1.31594,1.80941 4.57834,-8.77288 c -0.52089,-0.1645 -1.04178,-0.27416 -1.56267,-0.41123 z"
       class="cls-1" />
    <path
       style="fill:#e63315;stroke-width:2.74152541"
       inkscape:connector-curvature="0"
       id="path66"
       d="m 351.91672,-291.19488 1.31594,1.78199 4.71542,-9.04703 -1.94648,0.32898 z"
       class="cls-1" />
    <path
       style="fill:#e63315;stroke-width:2.74152541"
       inkscape:connector-curvature="0"
       id="path68"
       d="m 346.02244,-291.19488 1.31594,1.78199 3.94779,-7.53919 -2.33029,0.74021 z"
       class="cls-1" />
    <path
       style="fill:#e63315;stroke-width:2.74152541"
       inkscape:connector-curvature="0"
       id="path70"
       d="m 369.18834,-291.08522 1.31593,1.80941 3.26241,-6.25068 a 9.8146613,9.8146613 0 0 0 -1.42559,-0.93212 z"
       class="cls-1" />
    <polygon
       transform="matrix(2.7415255,0,0,2.7415255,-60.463541,-345.55933)"
       style="fill:#e63315"
       id="polygon72"
       points="132.7,19.81 133.18,20.46 137.86,12.51 137.8,12.48 137.41,12.25 137.41,12.26 "
       class="cls-1" />
    <polygon
       transform="matrix(2.7415255,0,0,2.7415255,-60.463541,-345.55933)"
       style="fill:#e63315"
       id="polygon74"
       points="135.01,11.27 134.61,11.12 134.6,11.14 129.84,18.74 130.32,19.39 "
       class="cls-1" />
    <polygon
       transform="matrix(2.7415255,0,0,2.7415255,-60.463541,-345.55933)"
       style="fill:#e63315"
       id="polygon76"
       points="131.65,10.52 131.14,10.46 127.04,17.01 127.52,17.67 "
       class="cls-1" />
    <path
       style="fill:#e63315;stroke-width:2.74152541"
       inkscape:connector-curvature="0"
       id="path78"
       d="m 320.16986,-288.97424 1.31593,1.8094 8.06009,-13.95436 -0.52089,-0.57572 -0.52089,-0.57572 z"
       class="cls-1" />
    <path
       style="fill:#e63315;stroke-width:2.74152541"
       inkscape:connector-curvature="0"
       id="path80"
       d="m 281.45952,-304.82026 1.28852,1.80941 8.22457,-14.06403 h -1.83682 z"
       class="cls-1" />
    <path
       style="fill:#e63315;stroke-width:2.74152541"
       inkscape:connector-curvature="0"
       id="path82"
       d="m 241.10426,0.55826437 c 1.67233,6.77156803 9.37602,10.69194963 17.18937,8.74546633 7.81335,-1.9464831 12.80292,-8.96478836 11.13059,-15.7363563 -1.67233,-6.7715684 -29.93746,0.219322 -28.31996,6.99088997 z"
       class="cls-1" />
    <ellipse
       style="fill:#8b2303;stroke-width:2.74152541"
       id="ellipse84"
       transform="rotate(-13.89)"
       ry="3.7284746"
       rx="14.393009"
       cy="57.165138"
       cx="248.61653"
       class="cls-11" />
    <path
       style="opacity:0.52999998;fill:#90a4b0;stroke-width:2.74152541"
       inkscape:connector-curvature="0"
       id="path86"
       d="m 219.17206,-122.53623 1.12403,1.01436 a 2.4125424,2.4125424 0 0 1 0.76762,1.28852 l 13.04966,56.009367 a 29.992289,29.992289 0 0 0 2.93344,-0.904704 c 10.28072,-3.728474 9.3486,3.289831 3.01567,6.086187 a 24.317331,24.317331 0 0 1 -4.4961,1.151441 l 0.84988,3.646229 5.64754,24.235085 0.21932,0.959534 a 15.983094,15.983094 0 0 1 -2.38513,13.159322 18.614958,18.614958 0 1 0 23.33038,-5.784618 15.818602,15.818602 0 0 1 -8.22457,-10.500043 l -1.34335,-5.126653 -5.83945,-22.261187 -16.7233,-63.38407 a 2.577034,2.577034 0 0 1 0.13707,-1.69975 l 0.49348,-1.04177 c -0.41123,-1.64492 -1.75458,-1.39818 -3.39949,-0.98695 l -1.4256,0.52089 a 21.575806,21.575806 0 0 1 -3.48174,0.87728 l -1.83682,0.27416 c -1.6175,0.41123 -2.93343,0.82245 -2.41254,2.46737 z"
       class="cls-12" />
    <path
       style="fill:#e63315;stroke-width:2.74152541"
       inkscape:connector-curvature="0"
       id="path88"
       d="m 252.70092,-311.50958 1.31593,1.78199 8.03267,-13.89954 -0.49348,-0.57572 -0.52089,-0.60313 z"
       class="cls-1" />
    <path
       style="fill:#e63315;stroke-width:2.74152541"
       inkscape:connector-curvature="0"
       id="path90"
       d="m 244.0377,-311.04352 1.31593,1.89165 8.03267,-14.69458 -0.49348,-0.63055 -0.52089,-0.60313 z"
       class="cls-1" />
    <path
       style="fill:#e63315;stroke-width:2.74152541"
       inkscape:connector-curvature="0"
       id="path92"
       d="m 237.18388,-311.8934 1.17886,1.9739 8.22457,-14.80424 -0.52088,-0.60313 -0.49348,-0.60314 z"
       class="cls-1" />
    <path
       style="fill:#e63315;stroke-width:2.74152541"
       inkscape:connector-curvature="0"
       id="path94"
       d="m 229.01414,-312.41429 1.28851,1.89166 8.06009,-14.722 -0.52089,-0.60313 -0.49348,-0.52089 z"
       class="cls-1" />
    <path
       style="fill:#e63315;stroke-width:2.74152541"
       inkscape:connector-curvature="0"
       id="path96"
       d="m 221.91359,-312.82552 1.31593,1.80941 8.06008,-13.95436 -0.52089,-0.57572 -0.52089,-0.57572 z"
       class="cls-1" />
    <path
       style="fill:#e63315;stroke-width:2.74152541"
       inkscape:connector-curvature="0"
       id="path98"
       d="m 215.27909,-313.53831 1.31594,1.69974 8.06008,-13.24156 -0.49347,-0.54831 -0.52089,-0.5483 z"
       class="cls-1" />
    <path
       style="fill:#f6f1a7;stroke-width:2.74152541"
       inkscape:connector-curvature="0"
       id="path100"
       d="m 54.68053,-44.759152 135.84259,11.733729 20.25987,-52.280891 c 1.86424,-10.22589 -6.57966,-25.276866 -10.9661,-35.941396 -4.79767,-11.26767 -5.86686,-18.09407 -12.09013,-27.14111 v 0 l -10.80161,-11.10317 2.60445,9.45826 -55.02242,-22.80949 -11.158,2.8786 a 68.538137,68.538137 0 0 0 -46.605938,41.58894 z"
       class="cls-13" />
    <path
       style="fill:#ed6c48;stroke-width:2.74152541"
       inkscape:connector-curvature="0"
       id="path102"
       d="m 215.79998,-262.92975 5.67496,12.06271 c 2.00132,4.24937 5.48305,11.43216 8.90996,14.61233 l 12.52877,8.58098 a 3.5091526,3.5091526 0 0 1 -1.06919,5.86686 l -9.48568,3.78331 c 0,0 -1.23369,43.09678 -15.95568,41.42445 l -17.73767,-2.11098 c -2.74153,-0.76763 -10.28072,-1.39818 -10.7742,1.53526 l -9.45826,18.31339 7.15538,11.98046 a 3.4543221,3.4543221 0 0 1 -0.95953,5.97653 3.4269069,3.4269069 0 0 1 -2.38513,0 c -7.81335,-3.07051 -39.83436,-19.38259 -61.98589,-31.63721 l 8.22458,-4.90733 13.40606,-27.11368 -9.8695,-25.85259 3.26242,-49.34746 32.35,-9.78724 23.5497,3.92038 2.74153,1.17885 a 43.864408,43.864408 0 0 1 21.87737,21.52098 z"
       class="cls-4" />
    <path
       style="fill:#227bbf;stroke-width:2.74152541"
       inkscape:connector-curvature="0"
       id="path104"
       d="m 158.1457,-210.8956 a 10.582288,10.582288 0 0 0 2.93343,4.96216 l 1.9739,0.60314 a 8.6358053,8.6358053 0 0 1 -4.90733,-5.5653 z"
       class="cls-2" />
    <path
       style="fill:#1e6298;stroke-width:2.74152541"
       inkscape:connector-curvature="0"
       id="path106"
       d="m 192.16803,-273.40238 c -4.63317,3.15276 -9.81466,5.48305 -14.33817,8.71805 a 37.860467,37.860467 0 0 0 -10.11623,10.9661 11.541822,11.541822 0 0 0 -2.02873,5.48306 12.802924,12.802924 0 0 0 1.67233,5.86686 c 1.34335,2.74153 2.74152,5.48305 4.41385,8.22458 a 9.1841104,9.1841104 0 0 1 -0.76762,-6.55225 22.53534,22.53534 0 0 1 2.60445,-6.16843 36.489704,36.489704 0 0 1 3.81072,-5.72979 c 4.00262,-4.71542 9.67758,-7.56661 14.9139,-10.9661 5.23631,-3.39949 10.44521,-7.40212 12.36428,-13.26899 a 8.2245765,8.2245765 0 0 0 0,-6.16843 c -0.27416,-0.5483 -1.28852,-2.19322 -1.9739,-2.22063 -0.68538,-0.0274 -1.23369,1.34334 -1.6175,2.11097 a 24.975297,24.975297 0 0 1 -8.93738,9.705 z"
       class="cls-7" />
    <path
       style="fill:#1e6298;stroke-width:2.74152541"
       inkscape:connector-curvature="0"
       id="path108"
       d="m 164.34155,-229.78471 a 26.839535,26.839535 0 0 1 -5.48305,10.69195 7.2924578,7.2924578 0 0 0 -1.86424,6.08619 3.7010594,3.7010594 0 0 0 6.33293,1.28851 10.966102,10.966102 0 0 0 1.39817,-6.08618 c 0.46606,-3.78331 2.74153,-7.26504 2.74153,-10.9661 a 19.190678,19.190678 0 0 0 -2.11098,-7.12797 14.50267,14.50267 0 0 0 -3.75589,-6.41517 c 1.01437,4.33161 3.42691,7.78593 2.74153,12.52877 z"
       class="cls-7" />
    <path
       style="fill:#1e6298;stroke-width:2.74152541"
       inkscape:connector-curvature="0"
       id="path110"
       d="m 137.58426,-209.19585 a 29.361738,29.361738 0 0 0 -6.60708,-0.63055 10.554873,10.554873 0 0 1 -6.22326,-1.94649 1.2611017,1.2611017 0 0 1 -0.38381,-0.46605 0.90470341,0.90470341 0 0 1 0.38381,-1.01437 2.1932204,2.1932204 0 0 1 1.09661,-0.30157 16.860382,16.860382 0 0 1 4.6606,0.60314 l 4.00262,0.9047 a 15.160636,15.160636 0 0 1 5.48305,1.9739 c 1.01437,0.7128 3.42691,3.39949 2.13839,4.55093 a 7.4843646,7.4843646 0 0 0 -4.55093,-3.67364 z"
       class="cls-7" />
    <circle
       style="fill:#e63315;stroke-width:2.74152541"
       id="circle112"
       r="10.143644"
       cy="-221.56013"
       cx="203.92918"
       class="cls-1" />
    <path
       style="fill:#227bbf;stroke-width:2.74152541"
       inkscape:connector-curvature="0"
       id="path114"
       d="m 111.53977,-289.85153 a 62.205214,62.205214 0 0 0 9.10186,-1.28852 12.007882,12.007882 0 0 0 6.6345,-3.12534 23.220721,23.220721 0 0 0 2.41254,-4.08487 64.042036,64.042036 0 0 0 -18.1489,8.49873 z"
       class="cls-2" />
    <path
       style="fill:#ed6c48;stroke-width:2.74152541"
       inkscape:connector-curvature="0"
       id="path116"
       d="m 64.687098,-117.21767 c 0,0 41.671192,0.30157 58.010682,11.40474 l -28.703774,50.361828 c -1.699746,2.960848 17.545764,-1.343347 27.415254,-1.590084 26.15415,-0.657966 61.35534,8.361652 86.19356,1.836822 l -1.86423,21.411314 -99.35289,19.190678 c -10.472626,1.04178 -52.088984,0.219322 -59.573348,-7.237627 l -2.878602,-5.071822 z"
       class="cls-4" />
    <path
       style="fill:#c85d3d;stroke-width:2.74152541"
       inkscape:connector-curvature="0"
       id="path118"
       d="m 64.687098,-117.21767 52.472802,21.13716 5.48305,-9.65017 c 0,0 -1.37077,-4.05746 -19.19068,-7.48436 a 276.37319,276.37319 0 0 0 -38.765172,-4.00263 z"
       class="cls-5" />
    <path
       style="fill:#b85639;stroke-width:2.74152541"
       inkscape:connector-curvature="0"
       id="path120"
       d="m 218.04803,-176.73619 a 2.3577119,2.3577119 0 0 0 -1.42559,-0.68538 c -4.77025,-1.04178 -18.03924,-4.46869 -28.64894,-7.70369 -8.22458,-2.46737 -20.58886,-13.4883 -20.58886,-13.4883 l 21.21941,19.98572 z"
       class="cls-3" />
    <path
       style="fill:none;stroke:#1e6298;stroke-width:0.63055086px;stroke-miterlimit:10"
       inkscape:connector-curvature="0"
       id="path122"
       d="m 89.826887,-92.543942 c -1.507839,4.825085 -3.18017,9.951738 -7.100551,13.159323 a 5.9491103,5.9491103 0 0 1 -4.304195,1.590085 5.0992374,5.0992374 0 0 1 -3.947797,-4.249365 13.707627,13.707627 0 0 1 0.57572,-6.113602 36.242967,36.242967 0 0 1 2.001314,-6.113602 c 1.343348,-2.933432 4.962161,-9.101867 8.882543,-8.526147 4.797669,0.65797 4.934746,6.853817 3.892966,10.253308 z"
       class="cls-14" />
    <path
       style="fill:none;stroke:#1e6298;stroke-width:0.60313559px;stroke-miterlimit:10"
       inkscape:connector-curvature="0"
       id="path124"
       d="m 81.629726,-97.69801 a 62.671273,62.671273 0 0 1 11.569237,15.681526 6.1410171,6.1410171 0 0 1 0.685382,4.496102 c -0.685382,1.343348 -2.933433,0.932119 -5.016992,-0.356398 a 31.966187,31.966187 0 0 1 -5.94911,-5.236314 c -1.946483,-2.028729 -3.892967,-4.112288 -5.647543,-6.332924 -2.741525,-3.28983 -8.005254,-10.966102 -6.634492,-13.378642 1.672331,-3.07051 7.840763,1.69974 10.993518,5.12665 z"
       class="cls-15" />
    <path
       style="fill:none;stroke:#1e6298;stroke-width:0.60313559px;stroke-miterlimit:10"
       inkscape:connector-curvature="0"
       id="path126"
       d="m 74.967819,-92.598772 a 62.122968,62.122968 0 0 1 19.190678,-2.741526 6.1410171,6.1410171 0 0 1 4.304195,1.535255 c 0.849873,1.233686 -0.57572,3.015678 -2.741525,4.249364 a 31.801696,31.801696 0 0 1 -7.429534,2.741526 c -2.741526,0.767627 -5.483051,1.480423 -8.224577,1.973898 -4.167119,0.767627 -13.351229,1.891653 -14.941314,-0.52089 -1.836822,-2.906017 5.291144,-6.086186 9.842077,-7.237627 z"
       class="cls-15" />
    <circle
       style="fill:#1e6298;stroke-width:2.74152541"
       id="circle128"
       r="2.3028812"
       cy="-90.158806"
       cx="81.794212"
       class="cls-7" />
    <circle
       style="fill:#1e6298;stroke-width:2.74152541"
       id="circle130"
       r="0.93211865"
       cy="-102.41343"
       cx="76.037018"
       class="cls-7" />
    <circle
       style="fill:#1e6298;stroke-width:2.74152541"
       id="circle132"
       r="0.93211865"
       cy="-77.109161"
       cx="89.881721"
       class="cls-7" />
    <circle
       style="fill:#1e6298;stroke-width:2.74152541"
       id="circle134"
       r="0.93211865"
       cy="-90.570038"
       cx="69.567017"
       class="cls-7" />
    <path
       style="fill:#ed6c48;stroke-width:2.74152541"
       inkscape:connector-curvature="0"
       id="path136"
       d="m 122.75261,-26.445762 c 17.81991,1.370763 97.54348,-5.620127 114.15712,-12.446526 1.67233,-0.685381 -2.46737,-25.934831 -2.98826,-25.989661 -1.48043,0 -3.9478,0.219322 -3.67365,-1.288517 0.16449,-0.959534 1.17886,-1.480424 2.02873,-1.891653 a 14.612331,14.612331 0 0 1 3.18017,-0.932119 l -1.45301,-6.332923 a 65.330553,65.330553 0 0 0 -11.81597,3.372076 c -2.57704,1.206271 -6.19585,4.386441 -8.74547,5.483051 -1.17885,0.548305 -24.15284,17.024873 -51.59551,13.104492 -3.70106,-0.411229 -39.09415,24.317331 -39.09415,26.92178 z"
       class="cls-4" />
    <path
       style="fill:#1e6298;stroke-width:2.74152541"
       inkscape:connector-curvature="0"
       id="path138"
       d="m 169.41337,-345.34001 a 41.122882,41.122882 0 0 0 4.44127,8.22458 48.305679,48.305679 0 0 0 6.25068,6.93606 47.181654,47.181654 0 0 0 7.70369,5.48305 44.65945,44.65945 0 0 0 8.71805,3.72847 43.617671,43.617671 0 0 0 9.43085,1.69975 50.252162,50.252162 0 0 0 9.54051,-0.46606 c 6.25067,-0.87729 12.17237,-2.60445 18.01182,-3.70106 a 58.805722,58.805722 0 0 1 17.35385,-0.95953 33.199874,33.199874 0 0 1 15.81861,5.48305 54.83051,54.83051 0 0 1 11.84339,12.80292 74.021188,74.021188 0 0 0 6.03135,7.23763 41.671188,41.671188 0 0 0 7.51178,6.03136 43.261272,43.261272 0 0 0 17.90216,6.38775 41.122882,41.122882 0 0 0 9.54051,0 49.566781,49.566781 0 0 0 9.23894,-2.05614 c 5.97653,-1.86424 11.54183,-4.41386 17.16195,-6.55225 l 3.0431,-1.09661 2.33029,-0.74021 c 1.56267,-0.46606 3.12534,-0.84988 4.71543,-1.17886 l 1.94648,-0.32898 a 31.966187,31.966187 0 0 1 4.27678,-0.24674 h 1.69975 a 22.562755,22.562755 0 0 1 3.59139,0.43865 c 0.52089,0.13707 1.04178,0.24673 1.56267,0.41122 a 15.846017,15.846017 0 0 1 2.46738,0.95954 l 0.79504,0.38381 a 9.8146613,9.8146613 0 0 1 1.42559,0.93212 9.4308477,9.4308477 0 0 1 3.53657,4.41386 12.775509,12.775509 0 0 1 0,8.22457 55.433646,55.433646 0 0 1 -3.39949,8.22458 l -3.9478,8.60839 c -1.28851,2.74153 -2.74152,5.48305 -3.72847,8.38907 a 34.680298,34.680298 0 0 0 -2.35771,8.93737 17.682839,17.682839 0 0 0 0,4.66059 15.681526,15.681526 0 0 0 1.42559,4.41386 l 0.46606,-0.21932 a 14.996144,14.996144 0 0 1 -1.2611,-4.27678 17.628009,17.628009 0 0 1 0,-4.4961 31.966187,31.966187 0 0 1 2.5222,-8.60839 c 1.17886,-2.74153 2.57703,-5.48305 3.9478,-8.22458 l 4.08487,-8.22458 a 59.189536,59.189536 0 0 0 3.75589,-8.47131 15.07839,15.07839 0 0 0 0.27415,-9.59534 11.980466,11.980466 0 0 0 -4.41385,-5.70237 l -1.31594,-0.87729 -0.65796,-0.60314 a 18.477882,18.477882 0 0 0 -2.38513,-1.04178 l -1.39818,-0.41123 a 22.891738,22.891738 0 0 0 -3.61881,-0.74021 l -1.45301,-0.13707 h -0.41123 a 30.321272,30.321272 0 0 0 -3.86555,0 l -1.69974,0.13707 a 39.971442,39.971442 0 0 0 -4.68801,0.82246 l -1.94649,0.46606 c -2.13839,0.57572 -4.19453,1.23369 -6.22326,1.94648 -5.81203,2.05615 -11.40475,4.49611 -17.10712,6.14102 a 47.702544,47.702544 0 0 1 -8.6358,1.72716 38.381357,38.381357 0 0 1 -8.69064,-0.24674 39.532798,39.532798 0 0 1 -16.14759,-6.1136 36.791272,36.791272 0 0 1 -6.57966,-5.48305 69.771824,69.771824 0 0 1 -5.48305,-6.93606 c -1.78199,-2.43996 -3.53657,-4.98957 -5.48305,-7.45695 a 38.381357,38.381357 0 0 0 -6.99089,-6.79898 37.750806,37.750806 0 0 0 -18.20373,-6.68932 59.710425,59.710425 0 0 0 -19.02618,1.23368 c -6.08619,1.37077 -11.87081,3.20759 -17.68284,4.27678 a 46.359196,46.359196 0 0 1 -8.66322,0.82246 42.082416,42.082416 0 0 1 -8.63581,-1.09661 45.70123,45.70123 0 0 1 -8.22458,-2.90602 47.346145,47.346145 0 0 1 -7.84076,-4.66059 45.756061,45.756061 0 0 1 -6.57966,-6.05877 46.907501,46.907501 0 0 1 -5.2089,-7.40212 z"
       class="cls-7" />
    <path
       style="fill:#ed6c48;stroke-width:2.74152541"
       inkscape:connector-curvature="0"
       id="path140"
       d="m 231.20736,-46.404067 11.76114,-1.453009 17.95699,-3.509153 c 1.34335,-0.219322 2.57704,0.657967 2.46738,1.727161 v 0 a 31.14373,31.14373 0 0 1 -6.93606,4.22195 l -21.93221,7.347288 z"
       class="cls-4" />
    <path
       style="fill:#ed6c48;stroke-width:2.74152541"
       inkscape:connector-curvature="0"
       id="path142"
       d="m 232.87969,-52.024195 14.14627,-3.180169 16.66847,-4.249365 c 5.89428,-0.493474 4.41386,3.18017 4.41386,3.18017 0,0.630551 -4.16712,2.549618 -4.90733,2.741525 l -28.97793,8.224577 z"
       class="cls-4" />
    <path
       style="fill:#ed6c48;stroke-width:2.74152541"
       inkscape:connector-curvature="0"
       id="path144"
       d="m 230.87837,-58.905424 18.56013,-3.975212 12.22721,-3.454322 c 5.89428,-0.493474 4.41385,3.207585 4.41385,3.207585 a 1.7271611,1.7271611 0 0 1 -1.31593,1.398178 l -33.63852,10.966102 z"
       class="cls-4" />
    <path
       style="fill:#ed6c48;stroke-width:2.74152541"
       inkscape:connector-curvature="0"
       id="path146"
       d="m 224.35354,-64.772288 18.53272,-4.002628 12.25461,-3.426906 c 5.89428,-0.493475 4.41386,3.180169 4.41386,3.180169 a 1.7545763,1.7545763 0 0 1 -1.31593,1.425593 l -33.66593,10.966102 z"
       class="cls-4" />
    <polygon
       transform="matrix(2.7415255,0,0,2.7415255,-60.463541,-345.55933)"
       style="fill:#b85639"
       id="polygon148"
       points="56.34,105.83 47.2,108.29 59.36,100.66 "
       class="cls-3" />
    <path
       style="fill:#227bbf;stroke-width:2.74152541"
       inkscape:connector-curvature="0"
       id="path150"
       d="m 27.786165,-281.73662 a 24.043179,24.043179 0 0 1 12.583602,12.94 c 2.741525,8.8003 -0.137076,19.82123 6.223263,26.51056 4.249364,4.44127 11.678898,5.48305 14.420424,10.9661 0.603136,1.23368 0.904703,2.54962 1.562669,3.72847 a 13.46089,13.46089 0 0 0 2.741526,3.15276 104.17797,104.17797 0 0 0 16.175,11.89822 l 1.069195,0.60313 c 12.665848,45.89314 51.650336,30.15678 51.650336,30.15678 h -0.1919 c 8.82771,-4.00262 7.15538,-10.9661 5.70237,-14.36559 l 0.76763,-0.57572 a 7.100551,7.100551 0 0 0 1.91907,-9.01962 c 3.64622,-0.93212 7.97784,-3.07051 6.74415,-6.60708 -1.23369,-3.53656 -4.60576,-2.22063 -6.63449,-5.48305 -3.92038,-6.1136 -7.67627,-12.80292 -6.60708,-16.44915 2.93343,-10.0614 13.46089,-5.64754 15.68153,-1.23369 2.22063,4.41386 1.67233,13.04966 1.04178,17.957 a 12.556187,12.556187 0 0 0 0,4.8525 c 0.98695,3.59139 4.66059,5.48305 8.22457,6.63449 a 10.417797,10.417797 0 0 1 -2.74152,-4.52352 8.7180511,8.7180511 0 0 0 4.77025,5.12665 l -1.9739,-0.60313 a 12.090127,12.090127 0 0 0 12.85776,2.74152 7.3472883,7.3472883 0 0 1 -5.81204,-10.63712 c 1.83683,-2.74152 5.48305,-3.97521 6.90865,-6.93606 2.05614,-4.16711 -1.20627,-8.82771 -2.74153,-13.15932 a 19.711568,19.711568 0 0 1 0.32899,-14.58491 c 3.72847,-8.58098 12.63843,-13.13191 19.62932,-18.69721 6.99089,-5.56529 17.05229,-15.16063 5.7572,-23.38521 a 23.302967,23.302967 0 0 0 -5.86686,-3.01568 c -4.38644,-1.50784 -8.82772,-2.8786 -13.35123,-4.00263 h -0.19191 a 110.37382,110.37382 0 0 0 -13.70763,-2.74152 85.343689,85.343689 0 0 0 -35.00928,2.1658 23.220721,23.220721 0 0 1 -2.41254,4.08488 12.007882,12.007882 0 0 1 -6.63449,3.12534 62.205214,62.205214 0 0 1 -9.10187,1.28851 c -9.37601,0.60314 -18.861691,-1.20627 -25.578429,-7.48436 -4.441271,-4.16712 -7.155381,-9.84208 -11.3225,-14.25593 a 20.835594,20.835594 0 0 0 -14.50267,-7.10055 13.488305,13.488305 0 0 0 -13.131907,8.74546 c -0.438644,1.39818 -0.712797,3.04309 -1.946483,3.81072 a 2.9882628,2.9882628 0 0 1 -2.193221,0.57572 c -27.771653,-8.03267 -37.2025007,12.19979 -15.105805,23.79644 z"
       class="cls-2" />
    <path
       style="fill:#227bbf;stroke-width:2.74152541"
       inkscape:connector-curvature="0"
       id="path152"
       d="m 129.68867,-298.35026 a 85.343689,85.343689 0 0 1 35.00928,-2.16581 110.37382,110.37382 0 0 1 13.70763,2.74153 244.79081,244.79081 0 0 0 -30.15678,-5.48305 c -6.44259,-0.84987 -14.31077,-1.15144 -17.98441,4.22195 a 6.1136019,6.1136019 0 0 0 -0.57572,0.68538 z"
       class="cls-2" />
  </g>
  <g
     id="g3207"
     transform="matrix(0.75653495,0,0,0.75653495,616.39606,330.22372)">
    <path
       style="fill:#e63315;stroke-width:2.74152541"
       inkscape:connector-curvature="0"
       id="path6"
       d="m 76.602606,621.20167 a 91.018647,91.018647 0 0 0 39.395724,9.705 c 16.28466,0 24.89305,-6.68932 24.89305,-16.86038 0,-9.705 -7.42953,-15.27029 -26.29123,-21.9322 -26.044494,-9.01962 -43.041954,-23.33038 -43.041954,-45.97538 0,-26.5928 22.34344,-46.9075 59.326624,-46.9075 a 96.556528,96.556528 0 0 1 40.02627,7.84076 l -7.89559,28.42962 a 74.925892,74.925892 0 0 0 -32.89831,-7.40212 c -15.35254,0 -22.80949,6.93606 -22.80949,15.02356 0,9.95174 8.85512,14.33818 29.08758,21.9322 27.68941,10.17106 40.71166,24.48183 40.71166,46.44144 0,26.09933 -20.23246,48.30568 -63.27441,48.30568 -17.929584,0 -35.639834,-4.63317 -44.440134,-9.48567 z"
       class="cls-1" />
    <path
       style="fill:#e63315;stroke-width:2.74152541"
       inkscape:connector-curvature="0"
       id="path8"
       d="M 231.33431,531.36188 H 189.22448 V 501.72599 H 309.8516 v 29.63589 h -42.93229 v 126.11018 h -35.63983 z"
       class="cls-1" />
    <path
       style="fill:#e63315;stroke-width:2.74152541"
       inkscape:connector-curvature="0"
       id="path10"
       d="M 421.87033,591.67544 H 364.2983 v 36.98318 h 64.23394 v 28.81344 H 328.46656 V 501.72599 h 96.80326 v 28.89568 h -61.08118 v 32.35 h 57.57203 z"
       class="cls-1" />
    <path
       style="fill:#e63315;stroke-width:2.74152541"
       inkscape:connector-curvature="0"
       id="path12"
       d="m 585.45716,597.87129 c -0.7128,-18.72462 -1.39818,-41.36962 -1.39818,-64.01462 h -0.7128 c -4.87991,19.87606 -11.37733,42.055 -17.4361,60.31356 L 546.7194,654.94985 H 519.03 l -16.75072,-60.31356 c -5.12666,-18.25856 -10.47263,-40.4375 -14.20111,-60.77962 h -0.46606 c -0.93211,21.0275 -1.6175,45.07068 -2.74152,64.48068 l -2.74153,59.13471 h -32.8983 l 10.00657,-155.74607 h 47.23648 l 15.35254,52.08899 c 4.87992,18.01182 9.75983,37.42182 13.26899,55.68038 h 0.68538 c 4.41385,-18.01182 9.75983,-38.57326 14.88648,-55.92712 l 16.75072,-51.76 h 46.30437 l 8.71805,155.66382 h -34.65288 z"
       class="cls-1" />
    <path
       style="fill:#227bbf;stroke-width:2.74152541"
       inkscape:connector-curvature="0"
       id="path14"
       d="m 136.99842,467.75849 a 333.56141,333.56141 0 0 1 -99.325474,16.77814 c -54.309621,0 -93.595681,-13.70763 -120.983521,-40.19077 C -110.671,418.74002 -125.69456,379.8926 -125.25592,336.19268 -124.81727,237.27844 -52.852227,180.7756 44.718666,180.7756 c 38.38136,0 67.989834,7.51178 82.574754,14.58492 l -14.03661,53.84356 c -16.449164,-7.04573 -36.654204,-12.80293 -69.333184,-12.80293 -56.064199,0 -98.448183,31.8017 -98.448183,96.25496 0,61.35534 38.381357,97.5709 93.595683,97.5709 15.4622,0 27.82648,-1.78199 33.11763,-4.41386 V 363.5531 H 26.185954 V 311.02547 H 136.99842 Z"
       class="cls-2" />
    <path
       style="fill:#227bbf;stroke-width:2.74152541"
       inkscape:connector-curvature="0"
       id="path154"
       d="M 207.12664,342.19662 V 477.76506 H 166.00376 V 342.19662 Z"
       class="cls-2" />
    <path
       style="fill:#227bbf;stroke-width:2.74152541"
       inkscape:connector-curvature="0"
       id="path156"
       d="m 231.1424,283.06191 a 359.35916,359.35916 0 0 1 54.39187,-3.75588 c 26.81212,0 45.56415,4.03004 58.42191,14.2011 10.71936,8.58097 16.64106,21.19199 16.64106,37.80563 0,23.05623 -16.44915,38.84742 -31.91136,44.49496 v 0.79505 c 12.61102,5.09923 19.57449,17.16194 24.12543,33.77559 5.62012,20.36954 11.26767,65.30314 14.7494,72.26662 H 325.6702 c -2.96084,-5.07183 -7.23762,-41.12289 -12.61101,-63.4389 -4.82509,-22.50793 -12.58361,-28.67637 -29.19725,-28.9231 h -12.33687 v 92.362 H 231.1424 Z m 40.46492,77.72225 h 16.06534 c 20.36953,0 32.43225,-10.17106 32.43225,-25.98966 0,-16.61364 -11.24026,-24.92047 -30.01971,-25.19462 a 100.50432,100.50432 0 0 0 -18.47788,1.34335 z"
       class="cls-2" />
    <path
       style="fill:#227bbf;stroke-width:2.74152541"
       inkscape:connector-curvature="0"
       id="path158"
       d="m 378.11559,302.00586 h 41.12288 v 146.34263 h 71.82797 v 34.29649 H 378.11559 Z"
       class="cls-2" />
    <path
       style="fill:#227bbf;stroke-width:2.74152541"
       inkscape:connector-curvature="0"
       id="path160"
       d="m 512.25843,433.35235 a 117.39212,117.39212 0 0 0 54.14513,14.50267 c 22.42568,0 34.26907,-10.00657 34.26907,-25.22204 0,-14.50267 -10.25331,-22.78208 -36.18814,-32.89831 -35.88657,-13.37864 -59.18954,-34.78996 -59.18954,-68.6478 0,-39.7247 30.75992,-70.12822 81.69746,-70.12822 a 123.91695,123.91695 0 0 1 54.99501,11.73373 l -10.96611,42.49365 a 96.474282,96.474282 0 0 0 -45.15292,-10.96611 c -21.13716,0 -31.39047,10.36297 -31.39047,22.4531 0,14.85907 12.17237,21.41131 40.02627,32.8983 38.21687,15.05098 56.09162,36.48971 56.09162,69.38802 0,39.03932 -27.88132,72.18436 -87.12568,72.18436 -24.67373,0 -49.01848,-6.90864 -61.19085,-14.14627 z"
       class="cls-2" />
    <path
       style="fill:#e63315;stroke-width:2.74152541"
       inkscape:connector-curvature="0"
       id="path162"
       d="m -52.550659,507.81218 c 0,7.70369 -5.921695,13.92695 -15.160636,13.92695 A 13.707627,13.707627 0 0 1 -82.29621,507.81218 c -0.164492,-8.06009 5.729788,-14.11886 14.776822,-14.11886 a 14.064026,14.064026 0 0 1 14.968729,14.11886 z m -29.00534,114.59577 v -89.6753 h 28.073222 v 89.6753 z"
       class="cls-1" />
    <path
       style="fill:#e63315;stroke-width:2.74152541"
       inkscape:connector-curvature="0"
       id="path164"
       d="m -30.974853,561.35417 c 0,-11.18542 -0.356398,-20.72593 -0.740212,-28.62152 h 24.3447456 l 1.288517,12.30945 h 0.575721 A 32.898306,32.898306 0 0 1 22.347818,530.73133 c 18.477878,0 32.322588,12.09013 32.322588,38.38136 v 53.18559 H 26.624598 v -49.59419 c 0,-11.54182 -4.057458,-19.43742 -14.201102,-19.43742 a 14.996144,14.996144 0 0 0 -14.3107644,10.47263 18.943941,18.943941 0 0 0 -1.09661,6.96347 v 51.70518 H -30.974853 Z"
       class="cls-1" />
  </g>
</svg>
