<?xml version="1.0" encoding="UTF-8" standalone="no"?>
<svg
   xmlns:dc="http://purl.org/dc/elements/1.1/"
   xmlns:cc="http://creativecommons.org/ns#"
   xmlns:rdf="http://www.w3.org/1999/02/22-rdf-syntax-ns#"
   xmlns:svg="http://www.w3.org/2000/svg"
   xmlns="http://www.w3.org/2000/svg"
   xmlns:sodipodi="http://sodipodi.sourceforge.net/DTD/sodipodi-0.dtd"
   xmlns:inkscape="http://www.inkscape.org/namespaces/inkscape"
   id="Capa_1"
   data-name="Capa 1"
   viewBox="0 0 762.67945 960.83002"
   version="1.1"
   sodipodi:docname="logo.svg"
   inkscape:version="0.92.5 (2060ec1f9f, 2020-04-08)"
   width="762.67944"
   height="960.83002">
  <metadata
     id="metadata79">
    <rdf:RDF>
      <cc:Work
         rdf:about="">
        <dc:format>image/svg+xml</dc:format>
        <dc:type
           rdf:resource="http://purl.org/dc/dcmitype/StillImage" />
        <dc:title></dc:title>
      </cc:Work>
    </rdf:RDF>
  </metadata>
  <sodipodi:namedview
     pagecolor="#ffffff"
     bordercolor="#666666"
     borderopacity="1"
     objecttolerance="10"
     gridtolerance="10"
     guidetolerance="10"
     inkscape:pageopacity="0"
     inkscape:pageshadow="2"
     inkscape:window-width="1181"
     inkscape:window-height="592"
     id="namedview77"
     showgrid="false"
     inkscape:zoom="0.26492743"
     inkscape:cx="448.82735"
     inkscape:cy="577.41501"
     inkscape:window-x="0"
     inkscape:window-y="0"
     inkscape:window-maximized="0"
     inkscape:current-layer="Capa_1"
     fit-margin-top="0"
     fit-margin-left="0"
     fit-margin-right="0"
     fit-margin-bottom="0" />
  <defs
     id="defs4">
    <style
       id="style2">.cls-1{fill:#227bbe;}.cls-2{fill:#e53315;}.cls-3{fill:#fff;}.cls-4{fill:none;stroke:#cd94af;}.cls-4,.cls-5{stroke-miterlimit:10;stroke-width:3.87px;}.cls-5{fill:#e5332a;stroke:#1d70b7;}</style>
  </defs>
  <path
     style="fill:#227bbe"
     inkscape:connector-curvature="0"
     class="cls-1"
     d="m 700.10944,376.20001 a 306.52,306.52 0 0 1 -196.26,285.84 c -1.58,0.6 -3.16,1.21 -4.77,1.79 a 307.58,307.58 0 0 1 -105.16,18.56 306.13,306.13 0 0 1 -55.22,-5 298.38,298.38 0 0 1 -29.22,-6.8 304.94,304.94 0 0 1 -33.9,-11.94 q -13.57,-5.69 -26.49,-12.63 c -1.46,-0.76 -2.92,-1.58 -4.34,-2.4 a 306,306 0 0 1 -157.000003,-267.43 c 0,-169.1 137.090003,-306.190004 306.190003,-306.190004 169.1,0 306.17,137.100004 306.17,306.200004 z"
     id="path6" />
  <path
     style="fill:#227bbe"
     inkscape:connector-curvature="0"
     class="cls-1"
     d="m 249.08944,658.18001 v 146.47 c -19.71,6.71 -57,15.92 -94.35,15.92 -51.58,0 -88.910003,-13 -114.880003,-38.16 -26,-24.3 -40.28,-61.2 -39.85,-102.73 0.36,-81.09 51.43,-132.25 125.090003,-144.65 a 305.45,305.45 0 0 0 34.08,49.91 c -52.55,0.52 -92.070003,30.71 -92.070003,91.4 0,58.26 36.480003,92.65 88.880003,92.65 14.7,0 26.43,-1.67 31.47,-4.19 v -59.11 h -43.62 v -49.91 h 100.91 c 1.42,0.81 2.88,1.64 4.34,2.4 z"
     id="path8" />
  <path
     style="fill:#227bbe"
     inkscape:connector-curvature="0"
     class="cls-1"
     d="m 309.47944,679.71001 v 141.46 h -33.9 v -153.39 a 306.94,306.94 0 0 0 33.9,11.93 z"
     id="path10" />
  <path
     style="fill:#227bbe"
     inkscape:connector-curvature="0"
     class="cls-1"
     d="m 439.20944,779.38001 c -3.77,-13.64 -9.51,-23.54 -19.93,-27.71 v -0.66 c 12.85,-4.62 26.34,-17.59 26.34,-36.52 0,-10.69 -3,-19.41 -8.63,-26 a 307.75,307.75 0 0 1 -98.29,-1.94 v 134.62 h 33.41 v -58.29 h 10.21 c 13.73,0.22 20.14,5.29 24.12,23.76 4.43,18.25 8,30.34 10.41,34.53 h 34.54 c -2.88,-5.74 -7.53,-25.09 -12.18,-41.79 z m -53.79,-40.68 h -13.31 v -40.91 a 86.27,86.27 0 0 1 15.28,-1.1 c 15.52,0.22 24.82,7 24.82,20.69 0,12.97 -9.97,21.32 -26.79,21.32 z"
     id="path12" />
  <path
     style="fill:#227bbe"
     inkscape:connector-curvature="0"
     class="cls-1"
     d="m 563.19944,793.02001 v 28.15 h -93.2 v -139.18 a 303,303 0 0 0 29.1,-9 c 1.61,-0.58 3.19,-1.18 4.77,-1.79 v 121.82 z"
     id="path14" />
  <path
     style="fill:#227bbe"
     inkscape:connector-curvature="0"
     class="cls-1"
     d="m 762.67944,737.40001 c 0,46.72 -36.21,86.42 -113.24,86.42 -32.08,0 -63.7,-8.3 -79.52,-17 l 12.91,-52.1 c 17.07,8.69 43.28,17.38 70.35,17.38 29.16,0 44.56,-12 44.56,-30.2 0,-17.34 -13.34,-27.27 -47,-39.27 -40.74,-14.04 -69.04,-35.34 -75.63,-67.45 a 307.45,307.45 0 0 0 86.3,-97.75 165.34,165.34 0 0 1 18.41,-1 c 31.65,0 55,6.62 71.62,14.07 l -14.15,50.84 a 134.23,134.23 0 0 0 -58.72,-13.24 c -27.46,0 -40.79,12.42 -40.79,26.88 0,17.8 15.82,25.64 52,39.28 49.57,18.19 72.9,43.83 72.9,83.14 z"
     id="path16" />
  <path
     style="fill:#e53315"
     inkscape:connector-curvature="0"
     class="cls-2"
     d="m 44.689437,793.10001 m -18,165.37 v -66.28 h 36.05 v 66.28 z"
     id="path18" />
  <path
     style="fill:#e53315"
     inkscape:connector-curvature="0"
     class="cls-2"
     d="m 77.919437,880.03001 c 0,-14.37 -0.47,-26.62 -1,-36.75 h 31.320003 l 1.65,15.78 h 0.72 c 4.74,-7.3 16.6,-18.37 35.81,-18.37 23.72,0 41.52,15.55 41.52,49.47 v 68.31 h -36.01 v -63.88 c 0,-14.84 -5.22,-25 -18.26,-25 -10,0 -15.9,6.84 -18.27,13.43 a 24.41,24.41 0 0 0 -1.42,9 v 66.43 H 77.919437 Z"
     id="path20" />
  <path
     style="fill:#e53315"
     inkscape:connector-curvature="0"
     class="cls-2"
     d="m 264.59944,927.14001 c 6.64,4 20.4,8.72 31.07,8.72 10.91,0 15.42,-3.77 15.42,-9.66 0,-5.89 -3.56,-8.72 -17.08,-13.19 -24,-8 -33.21,-21 -33,-34.63 0,-21.44 18.5,-37.69 47.2,-37.69 13.52,0 25.62,3.06 32.74,6.6 l -6.41,24.73 c -5.22,-2.83 -15.18,-6.6 -25.14,-6.6 -8.78,0 -13.76,3.54 -13.76,9.43 0,5.41 4.51,8.24 18.74,13.19 22.09,7.55 31.34,18.61 31.62,35.55 0,21.43 -17.08,37.22 -50.29,37.22 -15.18,0 -28.7,-3.3 -37.48,-8 z"
     id="path22" />
  <path
     style="fill:#e53315"
     inkscape:connector-curvature="0"
     class="cls-2"
     d="m 433.99944,843.28001 v 26.38 h -25.9 v 41.7 c 0,13.9 3.32,20.26 14.23,20.26 a 58.5,58.5 0 0 0 10.68,-0.95 l 0.23,27.09 c -4.74,1.89 -13.28,3.07 -23.48,3.07 -11.63,0 -21.35,-4 -27,-9.9 -6.64,-6.83 -10,-17.9 -10,-34.15 v -47.12 h -15.42 v -26.38 z"
     id="path24" />
  <path
     style="fill:#e53315"
     inkscape:connector-curvature="0"
     class="cls-2"
     d="m 481.38944,912.30001 c 1.19,14.84 15.89,21.91 32.74,21.91 a 102.91,102.91 0 0 0 32,-4.71 l 4.74,24.26 c -11.86,4.71 -26.33,7.07 -42,7.07 -39.38,0 -61.91,-22.62 -61.91,-58.66 0,-29.21 18.26,-61.48 58.59,-61.48 37.48,0 51.71,29 51.71,57.48 a 84.85,84.85 0 0 1 -1.19,14.13 z m 42.46,-24.5 c 0,-8.71 -3.79,-23.32 -20.4,-23.32 -15.18,0 -21.35,13.67 -22.3,23.32 z"
     id="path26" />
  <path
     style="fill:#e53315"
     inkscape:connector-curvature="0"
     class="cls-2"
     d="m 578.87944,880.03001 c 0,-14.37 -0.48,-26.62 -1,-36.75 h 30.36 l 1.76,15.55 h 0.71 c 5,-7.31 15.19,-18.14 35.11,-18.14 14.94,0 26.8,7.54 31.79,19.55 0,0 10.3,-9.85 36.65,-9.85 25.38,0 40,16.15 40,50.54 v 57.54 h -35.1 v -52.36 c 0,-16.72 -5.46,-26.38 -17.08,-26.38 -8.3,0 -14.24,5.65 -16.61,12.48 a 29.73,29.73 0 0 0 -1.42,9.19 v 57.07 h -35.2 v -64.54 c 0,-14.61 -5.22,-24.5 -16.6,-24.5 -9.25,0 -14.71,7.07 -16.84,12.95 a 23.56,23.56 0 0 0 -1.42,9 v 67.13 h -35.11 z"
     id="path28" />
  <path
     style="fill:#227bbe"
     inkscape:connector-curvature="0"
     class="cls-1"
     d="m 244.74944,643.59001 c 1.42,0.82 2.88,1.64 4.34,2.4 v -2.4 z m -119.65,-120.71 a 305.45,305.45 0 0 0 34.08,49.91 c 0.45,0 0.94,0 1.43,0 31,0 50.33,5.47 65.85,12.18 l 13.4,-51.18 c -13.83,-6.71 -41.92,-13.82 -78.4,-13.82 a 220.43,220.43 0 0 0 -36.36,2.91 z"
     id="path30" />
  <path
     style="fill:#ffffff"
     inkscape:connector-curvature="0"
     class="cls-3"
     d="m 583.21944,365.03001 -1.54,62.44 q -0.18,7 -0.75,13.88 c -7.81,93.29 -74.18,171.43 -163,200.85 l -1,0.32 a 82.25,82.25 0 0 1 -48.86,-0.7 l -2.36,-0.86 c -63.32,-23 -116,-70.55 -140.6,-133.29 a 235.86,235.86 0 0 1 -16.18,-80.28 l -1.55,-62.36 a 150.32,150.32 0 0 1 58.42,-122.72 v 0 a 212,212 0 0 1 129.49,-44.14 v 0 a 212,212 0 0 1 129.49,44.14 v 0 a 150.27,150.27 0 0 1 58.44,122.72 z"
     id="path32" />
  <polygon
     style="fill:#227bbe"
     class="cls-1"
     points="602.27,269.66 569.31,340.64 568.13,266.56 "
     id="polygon34"
     transform="translate(-5.6338303e-4,70.010006)" />
  <polygon
     style="fill:#227bbe"
     class="cls-1"
     points="187.13,290.08 208.91,357.38 230.64,235.98 "
     id="polygon36"
     transform="translate(-5.6338303e-4,70.010006)" />
  <path
     style="fill:none;stroke:#cd94af;stroke-width:3.86999989px;stroke-miterlimit:10"
     inkscape:connector-curvature="0"
     class="cls-4"
     d="M 262.82944,626.70001"
     id="path38" />
  <path
     style="fill:#227bbe"
     inkscape:connector-curvature="0"
     class="cls-1"
     d="m 354.36944,345.40001 -53.37,-3.81 -7.64,-45.79 -9.54,51.51 h -61.11 l -1.9,-26.72 -9.54,40.07 h -36.27 c 0,0 -5.8,-58.4 78.16,-127.09 16.71,-13.67 48.64,-29.53 60.93,-38.3 49.49,-35.3 47.9,-48.31 47.9,-48.31 l 5.73,-24.81 11.46,32.44 11.45,-22.9 -1.91,34.35 c 0,0 101.13,3.81 154.55,57.24 53.42,53.43 64.88,116.39 64.88,116.39 l -63,3.82 -28.62,-61.06 9.54,63 -89.68,5.72 -13.36,-70.6 1.91,63 z"
     id="path40" />
  <rect
     style="fill:#227bbe"
     class="cls-1"
     x="367.17944"
     y="412.59"
     width="49.130001"
     height="20.16"
     id="rect42" />
  <path
     style="fill:none;stroke:#cd94af;stroke-width:3.86999989px;stroke-miterlimit:10"
     inkscape:connector-curvature="0"
     class="cls-4"
     d="M 307.12944,631.01001"
     id="path44" />
  <polygon
     style="fill:#227bbe"
     class="cls-1"
     points="241.2,316.12 185.77,326.2 186.61,337.12 233.64,355.8 "
     id="polygon46"
     transform="translate(-5.6338303e-4,70.010006)" />
  <circle
     style="fill:#e5332a;stroke:#1d70b7;stroke-width:3.86999989px;stroke-miterlimit:10"
     class="cls-5"
     cx="299.77945"
     cy="432.11002"
     r="72.440002"
     id="circle48" />
  <path
     style="fill:#ffffff"
     inkscape:connector-curvature="0"
     class="cls-3"
     d="m 208.52944,415.52001 c -2.68,-10.25 -9.16,-19.44 -18.62,-24.22 -5.1,-2.58 -11,-3.9 -17,-1.81 -20.58,7.21 -0.84,113.38 42,124.3 l 17.64,-6.72 z"
     id="path50" />
  <polygon
     style="fill:#227bbe"
     class="cls-1"
     points="543.54,316.12 598.97,326.2 598.13,337.12 551.1,355.8 "
     id="polygon52"
     transform="translate(-5.6338303e-4,70.010006)" />
  <path
     style="fill:#ffffff"
     inkscape:connector-curvature="0"
     class="cls-3"
     d="m 579.30944,415.52001 c 2.69,-10.25 9.17,-19.44 18.63,-24.22 5.09,-2.58 11,-3.9 17,-1.81 20.57,7.21 0.84,113.38 -42,124.3 l -17.63,-6.72 z"
     id="path54" />
  <circle
     style="fill:#e5332a;stroke:#1d70b7;stroke-width:3.86999989px;stroke-miterlimit:10"
     class="cls-5"
     cx="484.95944"
     cy="432.11002"
     r="72.440002"
     id="circle56" />
  <path
     style="fill:#ffffff"
     inkscape:connector-curvature="0"
     class="cls-3"
     d="m 345.72944,428.46001 a 6.29,6.29 0 0 0 6.39,-6.18 6.14,6.14 0 0 0 -3.54,-5.51 25.8,25.8 0 0 0 0.92,-3.49 c 0.76,-4.13 0.17,-7.6 -1.77,-10.32 -4.29,-6 -14.32,-7.2 -27,-4.17 -4.09,-9.47 -9.77,-16.32 -16.25,-19.07 0,-0.14 0,-0.27 0,-0.41 a 6.39,6.39 0 0 0 -12.78,0 c 0,0.14 0,0.27 0,0.41 -6.45,2.74 -12.11,9.55 -16.2,18.95 -12.4,-2.88 -22.23,-1.65 -26.46,4.29 -1.94,2.72 -2.54,6.19 -1.78,10.32 1.24,6.68 5.93,14.56 13.09,22.47 a 82,82 0 0 0 -5.76,7.1 6.57,6.57 0 0 0 -3.41,-0.95 6.28,6.28 0 0 0 -6.39,6.17 6.17,6.17 0 0 0 3.77,5.63 26.37,26.37 0 0 0 -1.3,4.52 c -0.76,4.13 -0.16,7.6 1.78,10.33 2.78,3.91 8,5.78 14.76,5.78 a 53.89,53.89 0 0 0 12.72,-1.74 c 4.1,8.56 9.55,14.69 15.71,17.11 a 6.44,6.44 0 0 0 12.52,-0.3 c 5.9,-2.6 11.14,-8.62 15.09,-16.92 a 54.46,54.46 0 0 0 13.16,1.85 c 6.76,0 12,-1.87 14.76,-5.78 1.94,-2.73 2.53,-6.2 1.77,-10.33 -1.23,-6.68 -5.93,-14.55 -13.09,-22.47 a 79.42,79.42 0 0 0 6.39,-8 6.62,6.62 0 0 0 2.9,0.71 z m -53.53,-46.87 a 6.47,6.47 0 0 0 11.9,0 c 5.9,2.58 11.09,8.92 14.9,17.69 a 105.36,105.36 0 0 0 -20.58,8.1 104.73,104.73 0 0 0 -21.06,-8.22 c 3.8,-8.74 8.97,-15.04 14.84,-17.57 z m 33.44,53 c 0,3.27 -0.16,6.46 -0.44,9.56 a 141.45,141.45 0 0 1 -26.77,18 141.34,141.34 0 0 1 -27.38,-18.51 q -0.37,-4.41 -0.38,-9.05 0,-3.36 0.21,-6.61 a 136.26,136.26 0 0 1 14.26,-10.84 140.16,140.16 0 0 1 13.28,-7.83 141.56,141.56 0 0 1 13.29,7.83 137.41,137.41 0 0 1 13.68,10.34 c 0.16,2.35 0.25,4.72 0.25,7.11 z m 1.74,-5.36 c 2.39,2.15 4.62,4.33 6.66,6.5 -2.08,2.22 -4.36,4.44 -6.81,6.64 0.19,-2.54 0.29,-5.14 0.29,-7.78 0,-1.79 -0.05,-3.57 -0.14,-5.34 z m -2.38,17.46 a 82.56,82.56 0 0 1 -6.12,23.68 106,106 0 0 1 -18.47,-7.21 c 4.07,-2.16 8.2,-4.6 12.32,-7.34 a 141.64,141.64 0 0 0 12.27,-9.13 z m -28.48,16.46 a 103.92,103.92 0 0 1 -18.94,7.34 82.42,82.42 0 0 1 -6.23,-24.31 141.24,141.24 0 0 0 12.86,9.64 c 4.07,2.77 8.2,5.17 12.26,7.33 z m -27.52,-21.28 c -2.23,-2 -4.32,-4.07 -6.24,-6.12 1.88,-2 3.92,-4 6.1,-6 -0.07,1.6 -0.11,3.22 -0.11,4.85 0.04,2.48 0.13,4.89 0.25,7.27 z m 2,-16.34 a 86.55,86.55 0 0 1 5.6,-24.75 103.61,103.61 0 0 1 19.81,7.57 c -4.07,2.16 -8.19,4.6 -12.31,7.34 a 139,139 0 0 0 -13.04,9.84 z m 41.62,-9.84 c -4.11,-2.74 -8.24,-5.18 -12.3,-7.34 a 104.37,104.37 0 0 1 19.31,-7.44 86,86 0 0 1 5.51,24.12 139.55,139.55 0 0 0 -12.46,-9.34 z m -63.6,-2.73 c -0.67,-3.64 -0.18,-6.66 1.47,-9 2.44,-3.42 7.11,-5 13.23,-5 a 50.45,50.45 0 0 1 11.11,1.42 88.7,88.7 0 0 0 -5.84,26.91 c -2.68,2.38 -5.17,4.78 -7.43,7.19 -6.81,-7.63 -11.31,-15.15 -12.48,-21.52 z m 14.76,59.63 c -6.12,0 -10.79,-1.63 -13.23,-5.05 -1.65,-2.32 -2.14,-5.34 -1.47,-9 a 25.81,25.81 0 0 1 1.26,-4.37 7,7 0 0 0 0.92,0.07 6.28,6.28 0 0 0 6.39,-6.17 6,6 0 0 0 -1.63,-4.11 79.11,79.11 0 0 1 5.6,-6.92 c 2.31,2.47 4.87,4.94 7.62,7.37 a 85.45,85.45 0 0 0 6.52,26.53 51.37,51.37 0 0 1 -11.98,1.65 z m 41,14.81 a 6.42,6.42 0 0 0 -12.65,0.26 c -5.37,-2.39 -10.14,-7.89 -13.82,-15.5 a 106.56,106.56 0 0 0 20.13,-8 107.56,107.56 0 0 0 19.66,7.84 c -3.58,7.41 -8.17,12.85 -13.34,15.38 z m 43,-28.84 c 0.67,3.64 0.17,6.66 -1.48,9 -3.91,5.49 -13.54,6.36 -25.69,3.31 a 85.57,85.57 0 0 0 6.39,-25.95 c 3,-2.59 5.73,-5.24 8.21,-7.88 6.89,7.61 11.38,15.14 12.56,21.55 z m -12.54,-24.08 c -2.42,-2.58 -5.11,-5.15 -8,-7.69 a 89.23,89.23 0 0 0 -5.76,-26.3 51.3,51.3 0 0 1 11.6,-1.53 c 6.11,0 10.78,1.62 13.22,5 1.65,2.32 2.15,5.34 1.48,9 a 25,25 0 0 1 -0.86,3.26 6.64,6.64 0 0 0 -1.18,-0.11 6.3,6.3 0 0 0 -6.4,6.17 6.1,6.1 0 0 0 2,4.51 77.32,77.32 0 0 1 -6.11,7.67 z"
     id="path58" />
  <path
     style="fill:#ffffff"
     inkscape:connector-curvature="0"
     class="cls-3"
     d="m 529.89944,428.46001 a 6.29,6.29 0 0 0 6.39,-6.18 6.14,6.14 0 0 0 -3.54,-5.51 25.8,25.8 0 0 0 0.92,-3.49 c 0.77,-4.13 0.17,-7.6 -1.77,-10.32 -4.29,-6 -14.32,-7.2 -26.95,-4.17 -4.1,-9.47 -9.78,-16.32 -16.25,-19.07 0,-0.14 0,-0.27 0,-0.41 a 6.4,6.4 0 0 0 -12.79,0 c 0,0.14 0,0.27 0,0.41 -6.45,2.74 -12.1,9.55 -16.19,18.95 -12.41,-2.88 -22.23,-1.65 -26.47,4.29 -1.94,2.72 -2.54,6.19 -1.77,10.32 1.23,6.68 5.93,14.56 13.09,22.47 a 80.35,80.35 0 0 0 -5.77,7.1 6.54,6.54 0 0 0 -3.41,-0.95 6.28,6.28 0 0 0 -6.39,6.17 6.17,6.17 0 0 0 3.77,5.63 27.24,27.24 0 0 0 -1.29,4.52 c -0.77,4.13 -0.17,7.6 1.77,10.33 2.79,3.91 8,5.78 14.76,5.78 a 53.82,53.82 0 0 0 12.68,-1.74 c 4.1,8.56 9.56,14.69 15.71,17.11 a 6.44,6.44 0 0 0 12.52,-0.3 c 5.91,-2.6 11.14,-8.62 15.1,-16.92 a 54.32,54.32 0 0 0 13.12,1.84 c 6.77,0 12,-1.87 14.76,-5.78 1.94,-2.73 2.54,-6.2 1.77,-10.33 -1.23,-6.68 -5.93,-14.55 -13.09,-22.47 a 79.42,79.42 0 0 0 6.39,-8 6.65,6.65 0 0 0 2.93,0.72 z m -53.53,-46.87 a 6.48,6.48 0 0 0 11.91,0 c 5.89,2.58 11.08,8.92 14.89,17.69 a 105.61,105.61 0 0 0 -20.58,8.1 104.73,104.73 0 0 0 -21.06,-8.22 c 3.81,-8.74 8.97,-15.04 14.84,-17.57 z m 33.44,53 c 0,3.27 -0.15,6.46 -0.43,9.56 a 141.93,141.93 0 0 1 -26.78,18 140.89,140.89 0 0 1 -27.37,-18.51 c -0.25,-2.94 -0.39,-6 -0.39,-9.05 0,-2.24 0.08,-4.44 0.21,-6.61 a 137.32,137.32 0 0 1 14.26,-10.84 140.16,140.16 0 0 1 13.28,-7.83 139,139 0 0 1 13.29,7.83 137.57,137.57 0 0 1 13.69,10.34 c 0.15,2.35 0.24,4.72 0.24,7.11 z m 1.74,-5.36 c 2.4,2.15 4.63,4.33 6.66,6.5 -2.08,2.22 -4.36,4.44 -6.81,6.64 0.19,-2.54 0.29,-5.14 0.29,-7.78 0,-1.79 -0.05,-3.57 -0.14,-5.34 z m -2.43,17.44 a 82.56,82.56 0 0 1 -6.12,23.7 106,106 0 0 1 -18.46,-7.21 c 4.06,-2.16 8.19,-4.6 12.32,-7.34 a 143,143 0 0 0 12.26,-9.13 z m -28.47,16.46 a 104.28,104.28 0 0 1 -18.95,7.34 82.73,82.73 0 0 1 -6.23,-24.31 141.24,141.24 0 0 0 12.86,9.64 c 4.12,2.79 8.25,5.19 12.32,7.35 z m -27.44,-21.28 c -2.23,-2 -4.32,-4.07 -6.23,-6.12 1.87,-2 3.91,-4 6.1,-6 -0.08,1.6 -0.12,3.22 -0.12,4.85 0.04,2.5 0.09,4.91 0.25,7.29 z m 2,-16.34 a 86.54,86.54 0 0 1 5.61,-24.75 103.53,103.53 0 0 1 19.8,7.57 c -4.07,2.16 -8.19,4.6 -12.31,7.34 a 140.26,140.26 0 0 0 -13.08,9.86 z m 41.63,-9.84 c -4.12,-2.74 -8.25,-5.18 -12.31,-7.34 a 104.18,104.18 0 0 1 19.32,-7.44 86.31,86.31 0 0 1 5.5,24.12 140.82,140.82 0 0 0 -12.49,-9.32 z m -63.61,-2.73 c -0.67,-3.64 -0.18,-6.66 1.48,-9 2.43,-3.42 7.1,-5 13.22,-5 a 50.31,50.31 0 0 1 11.11,1.42 89,89 0 0 0 -5.84,26.91 c -2.68,2.38 -5.17,4.78 -7.43,7.19 -6.85,-7.61 -11.34,-15.13 -12.52,-21.5 z m 14.77,59.65 c -6.12,0 -10.79,-1.63 -13.22,-5.05 -1.66,-2.32 -2.15,-5.34 -1.48,-9 a 25.81,25.81 0 0 1 1.26,-4.37 7,7 0 0 0 0.92,0.07 6.28,6.28 0 0 0 6.39,-6.17 6,6 0 0 0 -1.63,-4.11 79.11,79.11 0 0 1 5.6,-6.92 c 2.32,2.47 4.87,4.94 7.62,7.37 a 85.73,85.73 0 0 0 6.52,26.53 51.31,51.31 0 0 1 -11.98,1.65 z m 41,14.81 a 6.42,6.42 0 0 0 -12.66,0.26 c -5.37,-2.39 -10.14,-7.89 -13.82,-15.5 a 106.3,106.3 0 0 0 20.13,-8 107.56,107.56 0 0 0 19.66,7.84 c -3.61,7.41 -8.21,12.85 -13.37,15.38 z m 43,-28.84 c 0.67,3.64 0.18,6.66 -1.48,9 -3.9,5.49 -13.54,6.36 -25.69,3.31 a 85.57,85.57 0 0 0 6.42,-25.91 112.93,112.93 0 0 0 8.21,-7.88 c 6.81,7.57 11.3,15.1 12.48,21.51 z m -12.6,-24.1 c -2.42,-2.58 -5.1,-5.15 -8,-7.69 a 89.23,89.23 0 0 0 -5.76,-26.3 51.3,51.3 0 0 1 11.6,-1.53 c 6.12,0 10.79,1.62 13.22,5 1.66,2.32 2.15,5.34 1.48,9 a 25,25 0 0 1 -0.86,3.26 6.56,6.56 0 0 0 -1.18,-0.11 6.29,6.29 0 0 0 -6.39,6.17 6.09,6.09 0 0 0 2,4.51 75.9,75.9 0 0 1 -6.11,7.69 z"
     id="path60" />
  <path
     style="fill:#e53315"
     inkscape:connector-curvature="0"
     class="cls-2"
     d="m 352.93944,544.71001 c 0,0 11.76,-17.64 29.39,-21.12 17.63,-3.48 35.28,20 35.28,20 z"
     id="path62" />
  <path
     style="fill:#e53315"
     inkscape:connector-curvature="0"
     class="cls-2"
     d="m 352.93944,544.71001 c 0,0 5.18,34.1 30.86,34.1 33.81,0 33.81,-35.28 33.81,-35.28 z"
     id="path64" />
  <ellipse
     style="fill:#ffffff"
     class="cls-3"
     cx="375.12946"
     cy="563.96002"
     rx="5.73"
     ry="5.4400001"
     id="ellipse66" />
  <path
     style="fill:#227bbe"
     inkscape:connector-curvature="0"
     class="cls-1"
     d="m 275.57944,645.59001 v 13.06 a 304.94,304.94 0 0 0 33.9,11.94 v -25 z"
     id="path68" />
  <path
     style="fill:#227bbe"
     inkscape:connector-curvature="0"
     class="cls-1"
     d="m 431.88944,674.40001 c -10.6,-8.36 -26.12,-11.67 -48.27,-11.67 a 302.27,302.27 0 0 0 -44.92,3.07 v 11.61 a 307.75,307.75 0 0 0 98.3,1.94 35.73,35.73 0 0 0 -5.11,-4.95 z"
     id="path70" />
  <path
     style="fill:#227bbe"
     inkscape:connector-curvature="0"
     class="cls-1"
     d="m 469.99944,645.59001 v 27.28 a 303,303 0 0 0 29.1,-9 c 1.61,-0.58 3.19,-1.19 4.77,-1.79 v -16.49 z"
     id="path72" />
  <path
     style="fill:#e53315"
     inkscape:connector-curvature="0"
     class="cls-2"
     d="m 43.439437,849.53001 c 11.62,0 19,7.77 19.21,18.14 0,9.89 -7.59,17.9 -19.45,17.9 -11.38,0 -19,-8 -18.74,-17.9 -0.23,-10.37 7.36,-18.14 19,-18.14"
     id="path74" />
</svg>
