<?xml version="1.0" encoding="UTF-8" standalone="no"?>
<svg
   xmlns:dc="http://purl.org/dc/elements/1.1/"
   xmlns:cc="http://creativecommons.org/ns#"
   xmlns:rdf="http://www.w3.org/1999/02/22-rdf-syntax-ns#"
   xmlns:svg="http://www.w3.org/2000/svg"
   xmlns="http://www.w3.org/2000/svg"
   xmlns:sodipodi="http://sodipodi.sourceforge.net/DTD/sodipodi-0.dtd"
   xmlns:inkscape="http://www.inkscape.org/namespaces/inkscape"
   width="54px"
   height="54px"
   viewBox="0 0 54 54"
   version="1.1"
   id="svg4868"
   sodipodi:docname="logo-mobile.svg"
   inkscape:version="0.92.5 (2060ec1f9f, 2020-04-08)">
  <metadata
     id="metadata4872">
    <rdf:RDF>
      <cc:Work
         rdf:about="">
        <dc:format>image/svg+xml</dc:format>
        <dc:type
           rdf:resource="http://purl.org/dc/dcmitype/StillImage" />
        <dc:title>logo-mobile</dc:title>
      </cc:Work>
    </rdf:RDF>
  </metadata>
  <sodipodi:namedview
     pagecolor="#ffffff"
     bordercolor="#666666"
     borderopacity="1"
     objecttolerance="10"
     gridtolerance="10"
     guidetolerance="10"
     inkscape:pageopacity="0"
     inkscape:pageshadow="2"
     inkscape:window-width="1109"
     inkscape:window-height="536"
     id="namedview4870"
     showgrid="false"
     inkscape:zoom="2.9704442"
     inkscape:cx="-10.604484"
     inkscape:cy="14.012197"
     inkscape:window-x="283"
     inkscape:window-y="257"
     inkscape:window-maximized="0"
     inkscape:current-layer="svg4868" />
  <!-- Generator: Sketch 51.3 (57544) - http://www.bohemiancoding.com/sketch -->
  <title
     id="title4857">logo-mobile</title>
  <desc
     id="desc4859">Created with Sketch.</desc>
  <defs
     id="defs4861">
    <style
       id="style1472">.cls-1{fill:#227bbe;}.cls-2{fill:#e53315;}.cls-3{fill:#fff;}.cls-4{fill:none;stroke:#cd94af;}.cls-4,.cls-5{stroke-miterlimit:10;stroke-width:3.87px;}.cls-5{fill:#e5332a;stroke:#1d70b7;}</style>
  </defs>
  <path
     style="fill:#227bbe;stroke-width:0.08690271"
     inkscape:connector-curvature="0"
     class="cls-1"
     d="M 54.047889,26.75851 A 26.637419,26.637419 0 0 1 36.992363,51.598781 c -0.137306,0.05214 -0.274613,0.105152 -0.414526,0.155555 A 26.729536,26.729536 0 0 1 27.439148,53.367251 26.603527,26.603527 0 0 1 22.64038,52.932737 25.930031,25.930031 0 0 1 20.101083,52.341799 26.500112,26.500112 0 0 1 17.155081,51.30418 q -1.17927,-0.494476 -2.302053,-1.097581 C 14.72615,50.140553 14.599272,50.069293 14.475871,49.998033 A 26.592229,26.592229 0 0 1 0.83214517,26.757641 c 0,-14.695248 11.91349283,-26.60874092 26.60874083,-26.60874092 14.695248,0 26.607003,11.91436192 26.607003,26.60960992 z"
     id="path1476" />
  <path
     style="fill:#227bbe;stroke-width:0.08690271"
     inkscape:connector-curvature="0"
     class="cls-1"
     d="m 14.475871,49.995426 c 0.123401,0.07126 0.250279,0.14252 0.377157,0.208566 V 49.995426 Z M 4.0779614,39.505399 a 26.544433,26.544433 0 0 0 2.9616443,4.337315 c 0.039106,0 0.081689,0 0.1242709,0 2.693984,0 4.3738134,0.475357 5.7225434,1.058475 l 1.164496,-4.447681 C 12.849052,39.870391 10.407955,39.252512 7.2377439,39.252512 a 19.155964,19.155964 0 0 0 -3.1597825,0.252887 z"
     id="path1500" />
  <path
     style="fill:#ffffff;stroke-width:0.08690271"
     inkscape:connector-curvature="0"
     class="cls-3"
     d="m 43.889831,25.787807 -0.13383,5.426205 q -0.01564,0.608319 -0.06518,1.206209 c -0.67871,8.107154 -6.446443,14.897732 -14.165142,17.45441 l -0.0869,0.02781 a 7.1477479,7.1477479 0 0 1 -4.246066,-0.06083 l -0.205091,-0.07474 C 19.484943,47.768109 14.906908,43.635885 12.769101,38.183609 A 20.496873,20.496873 0 0 1 11.363016,31.20706 l -0.1347,-5.419253 a 13.063215,13.063215 0 0 1 5.076857,-10.664701 v 0 A 18.423375,18.423375 0 0 1 27.558205,11.28722 v 0 a 18.423375,18.423375 0 0 1 11.253032,3.835886 v 0 a 13.05887,13.05887 0 0 1 5.078594,10.664701 z"
     id="path1502" />
  <polygon
     style="fill:#227bbe"
     class="cls-1"
     points="568.13,266.56 602.27,269.66 569.31,340.64 "
     id="polygon1504"
     transform="matrix(0.08690271,0,0,0.08690271,-6.7935677,0.14976911)" />
  <polygon
     style="fill:#227bbe"
     class="cls-1"
     points="230.64,235.98 187.13,290.08 208.91,357.38 "
     id="polygon1506"
     transform="matrix(0.08690271,0,0,0.08690271,-6.7935677,0.14976911)" />
  <path
     style="fill:none;stroke:#cd94af;stroke-width:0.33631349px;stroke-miterlimit:10"
     inkscape:connector-curvature="0"
     class="cls-4"
     d="M 16.047072,48.527639"
     id="path1508" />
  <path
     style="fill:#227bbe;stroke-width:0.08690271"
     inkscape:connector-curvature="0"
     class="cls-1"
     d="M 24.002146,24.081906 19.364148,23.750807 18.700211,19.771532 17.87116,24.247891 H 12.560535 L 12.39542,21.92585 11.566368,25.408042 H 8.4144066 c 0,0 -0.5040357,-5.075118 6.7923154,-11.044466 1.452145,-1.18796 4.226948,-2.566237 5.294983,-3.328373 4.300815,-3.0676661 4.162639,-4.1982704 4.162639,-4.1982704 l 0.497953,-2.1560562 0.995905,2.8191239 0.995036,-1.990072 -0.165984,2.985108 c 0,0 8.788471,0.3310994 13.430814,4.9743107 4.642342,4.643212 5.638247,10.114607 5.638247,10.114607 l -5.47487,0.331968 -2.487156,-5.306279 0.829052,5.47487 -7.793435,0.497084 -1.16102,-6.135331 0.165984,5.47487 z"
     id="path1510" />
  <rect
     style="fill:#227bbe;stroke-width:0.08690271"
     class="cls-1"
     x="25.115368"
     y="29.920898"
     width="4.2695303"
     height="1.7519586"
     id="rect1512" />
  <path
     style="fill:none;stroke:#cd94af;stroke-width:0.33631349px;stroke-miterlimit:10"
     inkscape:connector-curvature="0"
     class="cls-4"
     d="M 19.896862,48.902189"
     id="path1514" />
  <polygon
     style="fill:#227bbe"
     class="cls-1"
     points="233.64,355.8 241.2,316.12 185.77,326.2 186.61,337.12 "
     id="polygon1516"
     transform="matrix(0.08690271,0,0,0.08690271,-6.7935677,0.14976911)" />
  <circle
     style="fill:#e5332a;stroke:#1d70b7;stroke-width:0.33631349px;stroke-miterlimit:10"
     class="cls-5"
     cx="19.258127"
     cy="31.617241"
     r="6.2952323"
     id="circle1518" />
  <path
     style="fill:#ffffff;stroke-width:0.08690271"
     inkscape:connector-curvature="0"
     class="cls-3"
     d="M 11.328254,30.175524 C 11.095355,29.284772 10.532226,28.486136 9.710126,28.070741 9.2669222,27.846532 8.7541962,27.73182 8.23278,27.913447 6.4443222,28.540015 8.159782,37.766476 11.882694,38.715454 l 1.532964,-0.583986 z"
     id="path1520" />
  <polygon
     style="fill:#227bbe"
     class="cls-1"
     points="551.1,355.8 543.54,316.12 598.97,326.2 598.13,337.12 "
     id="polygon1522"
     transform="matrix(0.08690271,0,0,0.08690271,-6.7935677,0.14976911)" />
  <path
     style="fill:#ffffff;stroke-width:0.08690271"
     inkscape:connector-curvature="0"
     class="cls-3"
     d="m 43.550041,30.175524 c 0.233769,-0.890752 0.796898,-1.689388 1.618998,-2.104783 0.442335,-0.224209 0.95593,-0.338921 1.477346,-0.157294 1.787589,0.626568 0.073,9.853029 -3.649914,10.802007 l -1.532095,-0.583986 z"
     id="path1524" />
  <circle
     style="fill:#e5332a;stroke:#1d70b7;stroke-width:0.33631349px;stroke-miterlimit:10"
     class="cls-5"
     cx="35.350769"
     cy="31.617241"
     r="6.2952323"
     id="circle1526" />
  <path
     style="fill:#ffffff;stroke-width:0.08690271"
     inkscape:connector-curvature="0"
     class="cls-3"
     d="m 23.251306,31.300046 a 0.54661805,0.54661805 0 0 0 0.555309,-0.537059 0.53358264,0.53358264 0 0 0 -0.307636,-0.478834 2.2420899,2.2420899 0 0 0 0.07995,-0.303291 c 0.06605,-0.358908 0.01477,-0.66046 -0.153818,-0.896836 -0.372813,-0.521416 -1.244447,-0.625699 -2.346373,-0.362384 -0.355433,-0.822969 -0.84904,-1.418252 -1.412169,-1.657235 0,-0.01217 0,-0.02346 0,-0.03563 a 0.5553085,0.5553085 0 0 0 -1.110617,0 c 0,0.01217 0,0.02346 0,0.03563 -0.560523,0.238114 -1.052392,0.829921 -1.407824,1.646807 -1.077594,-0.25028 -1.931847,-0.14339 -2.299446,0.372812 -0.168591,0.236376 -0.220733,0.537928 -0.154687,0.896836 0.10776,0.58051 0.515334,1.265304 1.137557,1.952704 a 7.1260222,7.1260222 0 0 0 -0.50056,0.61701 0.5709508,0.5709508 0 0 0 -0.296338,-0.08256 0.54574902,0.54574902 0 0 0 -0.555308,0.53619 0.53618972,0.53618972 0 0 0 0.327623,0.489262 2.2916245,2.2916245 0 0 0 -0.112974,0.3928 c -0.06605,0.358908 -0.0139,0.660461 0.154687,0.897705 0.24159,0.33979 0.695222,0.502298 1.282684,0.502298 a 4.683187,4.683187 0 0 0 1.105403,-0.151211 c 0.356301,0.743887 0.829921,1.276601 1.365241,1.486905 a 0.55965345,0.55965345 0 0 0 1.088022,-0.02607 c 0.512726,-0.225947 0.968096,-0.749102 1.311362,-1.470394 a 4.7327216,4.7327216 0 0 0 1.14364,0.16077 c 0.587462,0 1.042832,-0.162508 1.282684,-0.502298 0.168591,-0.237244 0.219864,-0.538797 0.153818,-0.897705 -0.106891,-0.58051 -0.515333,-1.264434 -1.137557,-1.952704 a 6.9018132,6.9018132 0 0 0 0.555308,-0.695221 0.57529594,0.57529594 0 0 0 0.252018,0.0617 z m -4.651902,-4.073131 a 0.56226053,0.56226053 0 0 0 1.034142,0 c 0.512726,0.224209 0.963752,0.775173 1.294851,1.537309 a 9.1560695,9.1560695 0 0 0 -1.788458,0.703912 9.1013208,9.1013208 0 0 0 -1.830171,-0.71434 c 0.33023,-0.75953 0.779517,-1.307017 1.289636,-1.526881 z m 2.906027,4.605844 c 0,0.284172 -0.01391,0.561392 -0.03824,0.83079 a 12.292388,12.292388 0 0 1 -2.326386,1.564249 12.282829,12.282829 0 0 1 -2.379396,-1.608569 q -0.03215,-0.383241 -0.03302,-0.78647 0,-0.291993 0.01825,-0.574427 a 11.841363,11.841363 0 0 1 1.239233,-0.942025 12.180284,12.180284 0 0 1 1.154068,-0.680448 12.301948,12.301948 0 0 1 1.154937,0.680448 11.941301,11.941301 0 0 1 1.188829,0.898574 c 0.01391,0.204221 0.02173,0.410181 0.02173,0.617878 z m 0.151211,-0.465798 c 0.207697,0.18684 0.40149,0.376288 0.578772,0.564867 -0.180758,0.192924 -0.378896,0.385848 -0.591808,0.577034 0.01651,-0.220733 0.0252,-0.44668 0.0252,-0.676103 0,-0.155556 -0.0043,-0.310243 -0.01217,-0.46406 z m -0.206829,1.517321 a 7.1746877,7.1746877 0 0 1 -0.531844,2.057856 9.2116873,9.2116873 0 0 1 -1.605094,-0.626568 c 0.353695,-0.18771 0.712603,-0.399753 1.070642,-0.637866 a 12.3089,12.3089 0 0 0 1.066296,-0.793422 z m -2.474989,1.430419 a 9.0309296,9.0309296 0 0 1 -1.645937,0.637865 7.1625214,7.1625214 0 0 1 -0.541404,-2.112604 12.274139,12.274139 0 0 0 1.117569,0.837742 c 0.353694,0.24072 0.712602,0.449287 1.065427,0.636997 z m -2.391563,-1.84929 c -0.193793,-0.173806 -0.375419,-0.353694 -0.542273,-0.531845 0.163378,-0.173805 0.340659,-0.347611 0.530107,-0.521416 -0.0061,0.139044 -0.0096,0.279827 -0.0096,0.421478 0.0035,0.215519 0.0113,0.424954 0.02172,0.631783 z m 0.173806,-1.41999 a 7.5214296,7.5214296 0 0 1 0.486655,-2.150843 9.0039898,9.0039898 0 0 1 1.721543,0.657854 c -0.353694,0.18771 -0.711734,0.399752 -1.069773,0.637866 a 12.079477,12.079477 0 0 0 -1.133211,0.855123 z m 3.616891,-0.855123 c -0.357171,-0.238114 -0.716079,-0.450156 -1.068904,-0.637866 a 9.0700358,9.0700358 0 0 1 1.678092,-0.646556 7.4736331,7.4736331 0 0 1 0.478833,2.096093 12.127273,12.127273 0 0 0 -1.082807,-0.811671 z m -5.527013,-0.237244 c -0.05823,-0.316326 -0.01564,-0.578773 0.127747,-0.782125 0.212043,-0.297207 0.617878,-0.434513 1.149723,-0.434513 a 4.3842417,4.3842417 0 0 1 0.965489,0.123401 7.7082704,7.7082704 0 0 0 -0.507512,2.338552 c -0.232899,0.206829 -0.449287,0.415395 -0.645687,0.624831 -0.591807,-0.663068 -0.982869,-1.316576 -1.084546,-1.870146 z m 1.282684,5.182008 c -0.531844,0 -0.93768,-0.141651 -1.149723,-0.438859 -0.143389,-0.201614 -0.185971,-0.46406 -0.127747,-0.782124 a 2.2429589,2.2429589 0 0 1 0.109498,-0.379765 0.60831897,0.60831897 0 0 0 0.07995,0.0061 0.54574902,0.54574902 0 0 0 0.555309,-0.536189 0.52141626,0.52141626 0 0 0 -0.141652,-0.35717 6.8748734,6.8748734 0 0 1 0.486655,-0.601367 c 0.200746,0.214649 0.423217,0.429299 0.662199,0.640473 a 7.4258366,7.4258366 0 0 0 0.566606,2.305529 4.4641922,4.4641922 0 0 1 -1.041095,0.143389 z m 3.563011,1.287029 a 0.5579154,0.5579154 0 0 0 -1.099319,0.02259 c -0.466668,-0.207698 -0.881193,-0.685662 -1.200995,-1.346992 a 9.2603528,9.2603528 0 0 0 1.749351,-0.695222 9.3472555,9.3472555 0 0 0 1.708507,0.681318 c -0.311111,0.643949 -0.709995,1.116699 -1.159282,1.336563 z m 3.736817,-2.506274 c 0.05823,0.316326 0.01477,0.578772 -0.128616,0.782124 -0.33979,0.477096 -1.176663,0.552702 -2.232531,0.287648 a 7.4362649,7.4362649 0 0 0 0.555309,-2.255125 c 0.260708,-0.225078 0.497952,-0.45537 0.713471,-0.684793 0.598759,0.661329 0.988953,1.315707 1.091498,1.872753 z M 22.339697,31.8232 c -0.210305,-0.224209 -0.444073,-0.447549 -0.695222,-0.668282 a 7.7543288,7.7543288 0 0 0 -0.500559,-2.285541 4.458109,4.458109 0 0 1 1.008071,-0.132961 c 0.530976,0 0.936811,0.140782 1.148854,0.434513 0.143389,0.201614 0.186841,0.464061 0.128616,0.782125 a 2.1725677,2.1725677 0 0 1 -0.07474,0.283302 0.57703399,0.57703399 0 0 0 -0.102546,-0.0096 0.54748707,0.54748707 0 0 0 -0.556177,0.53619 0.53010653,0.53010653 0 0 0 0.173805,0.391931 6.7193175,6.7193175 0 0 1 -0.530975,0.666544 z"
     id="path1528" />
  <path
     style="fill:#ffffff;stroke-width:0.08690271"
     inkscape:connector-curvature="0"
     class="cls-3"
     d="m 39.256178,31.300046 a 0.54661805,0.54661805 0 0 0 0.555309,-0.537059 0.53358264,0.53358264 0 0 0 -0.307636,-0.478834 2.2420899,2.2420899 0 0 0 0.07995,-0.303291 c 0.06692,-0.358908 0.01477,-0.66046 -0.153818,-0.896836 -0.372813,-0.521416 -1.244447,-0.625699 -2.342028,-0.362384 -0.356301,-0.822969 -0.849909,-1.418252 -1.412169,-1.657235 0,-0.01217 0,-0.02346 0,-0.03563 a 0.55617734,0.55617734 0 0 0 -1.111486,0 c 0,0.01217 0,0.02346 0,0.03563 -0.560522,0.238114 -1.051523,0.829921 -1.406955,1.646807 -1.078462,-0.25028 -1.931847,-0.14339 -2.300315,0.372812 -0.168591,0.236376 -0.220732,0.537928 -0.153817,0.896836 0.10689,0.58051 0.515333,1.265304 1.137556,1.952704 a 6.9826327,6.9826327 0 0 0 -0.501428,0.61701 0.56834372,0.56834372 0 0 0 -0.296339,-0.08256 0.54574902,0.54574902 0 0 0 -0.555308,0.53619 0.53618972,0.53618972 0 0 0 0.327623,0.489262 2.3672298,2.3672298 0 0 0 -0.112104,0.3928 c -0.06691,0.358908 -0.01477,0.660461 0.153817,0.897705 0.242459,0.33979 0.695222,0.502298 1.282684,0.502298 a 4.6771039,4.6771039 0 0 0 1.101927,-0.151211 c 0.356301,0.743887 0.83079,1.276601 1.365241,1.486905 a 0.55965345,0.55965345 0 0 0 1.088022,-0.02607 c 0.513595,-0.225947 0.968097,-0.749102 1.312231,-1.470394 a 4.7205552,4.7205552 0 0 0 1.140164,0.159901 c 0.588331,0 1.042832,-0.162508 1.282684,-0.502298 0.168591,-0.237244 0.220733,-0.538797 0.153818,-0.897705 -0.106891,-0.58051 -0.515333,-1.264434 -1.137557,-1.952704 a 6.9018132,6.9018132 0 0 0 0.555308,-0.695221 0.57790302,0.57790302 0 0 0 0.254625,0.06257 z m -4.651902,-4.073131 a 0.56312956,0.56312956 0 0 0 1.035012,0 c 0.511857,0.224209 0.962882,0.775173 1.293981,1.537309 a 9.1777952,9.1777952 0 0 0 -1.788458,0.703912 9.1013208,9.1013208 0 0 0 -1.830171,-0.71434 c 0.331099,-0.75953 0.779517,-1.307017 1.289636,-1.526881 z m 2.906027,4.605844 c 0,0.284172 -0.01304,0.561392 -0.03737,0.83079 a 12.334102,12.334102 0 0 1 -2.327255,1.564249 12.243723,12.243723 0 0 1 -2.378527,-1.608569 c -0.02173,-0.255494 -0.03389,-0.521417 -0.03389,-0.78647 0,-0.194662 0.007,-0.385848 0.01825,-0.574427 a 11.93348,11.93348 0 0 1 1.239232,-0.942025 12.180284,12.180284 0 0 1 1.154068,-0.680448 12.079477,12.079477 0 0 1 1.154937,0.680448 11.955206,11.955206 0 0 1 1.189698,0.898574 c 0.01304,0.204221 0.02086,0.410181 0.02086,0.617878 z m 0.151211,-0.465798 c 0.208566,0.18684 0.402359,0.376288 0.578772,0.564867 -0.180758,0.192924 -0.378896,0.385848 -0.591808,0.577034 0.01651,-0.220733 0.0252,-0.44668 0.0252,-0.676103 0,-0.155556 -0.0043,-0.310243 -0.01217,-0.46406 z m -0.211174,1.515583 a 7.1746877,7.1746877 0 0 1 -0.531845,2.059594 9.2116873,9.2116873 0 0 1 -1.604224,-0.626568 c 0.352825,-0.18771 0.711734,-0.399753 1.070642,-0.637866 a 12.427088,12.427088 0 0 0 1.065427,-0.793422 z m -2.47412,1.430418 a 9.0622146,9.0622146 0 0 1 -1.646806,0.637866 7.1894612,7.1894612 0 0 1 -0.541404,-2.112605 12.274139,12.274139 0 0 0 1.117569,0.837743 c 0.358039,0.242458 0.716947,0.451025 1.070641,0.638735 z m -2.38461,-1.849289 c -0.193793,-0.173806 -0.37542,-0.353694 -0.541404,-0.531845 0.162508,-0.173805 0.339789,-0.347611 0.530106,-0.521416 -0.007,0.139044 -0.01043,0.279827 -0.01043,0.421478 0.0035,0.217257 0.0078,0.426692 0.02173,0.633521 z m 0.173805,-1.41999 a 7.5205605,7.5205605 0 0 1 0.487524,-2.150843 8.9970376,8.9970376 0 0 1 1.720674,0.657854 c -0.353694,0.18771 -0.711733,0.399752 -1.069773,0.637866 a 12.188974,12.188974 0 0 0 -1.136687,0.856861 z m 3.61776,-0.855123 c -0.358039,-0.238114 -0.716948,-0.450156 -1.069773,-0.637866 a 9.0535243,9.0535243 0 0 1 1.678961,-0.646556 7.5005729,7.5005729 0 0 1 0.477965,2.096093 12.23764,12.23764 0 0 0 -1.085415,-0.809933 z m -5.527882,-0.237245 c -0.05822,-0.316325 -0.01564,-0.578772 0.128616,-0.782124 0.211174,-0.297207 0.61701,-0.434513 1.148854,-0.434513 a 4.3720753,4.3720753 0 0 1 0.965489,0.123401 7.7343412,7.7343412 0 0 0 -0.507511,2.338552 c -0.2329,0.206829 -0.449287,0.415395 -0.645688,0.624831 -0.595283,-0.66133 -0.985476,-1.314838 -1.088022,-1.868408 z m 1.283553,5.183747 c -0.531844,0 -0.93768,-0.141651 -1.148853,-0.438859 -0.144259,-0.201614 -0.186841,-0.46406 -0.128616,-0.782124 a 2.2429589,2.2429589 0 0 1 0.109497,-0.379765 0.60831897,0.60831897 0 0 0 0.07995,0.0061 0.54574902,0.54574902 0 0 0 0.555308,-0.536189 0.52141626,0.52141626 0 0 0 -0.141652,-0.35717 6.8748734,6.8748734 0 0 1 0.486656,-0.601367 c 0.201614,0.214649 0.423216,0.429299 0.662198,0.640473 a 7.4501693,7.4501693 0 0 0 0.566606,2.305529 4.4589781,4.4589781 0 0 1 -1.041095,0.143389 z m 3.563012,1.287029 a 0.5579154,0.5579154 0 0 0 -1.100189,0.02259 c -0.466667,-0.207698 -0.881193,-0.685662 -1.200995,-1.346992 a 9.2377581,9.2377581 0 0 0 1.749351,-0.695222 9.3472555,9.3472555 0 0 0 1.708508,0.681318 c -0.313719,0.643949 -0.713472,1.116699 -1.16189,1.336563 z m 3.736816,-2.506274 c 0.05823,0.316326 0.01564,0.578772 -0.128616,0.782124 -0.33892,0.477096 -1.176663,0.552702 -2.232531,0.287648 a 7.4362649,7.4362649 0 0 0 0.557916,-2.251649 9.813923,9.813923 0 0 0 0.713471,-0.684793 c 0.591808,0.657853 0.982001,1.312231 1.084546,1.869277 z M 38.3437,31.821462 C 38.133395,31.597253 37.900496,31.373913 37.648478,31.15318 a 7.7543288,7.7543288 0 0 0 -0.500559,-2.285541 4.458109,4.458109 0 0 1 1.008071,-0.132961 c 0.531845,0 0.93768,0.140782 1.148854,0.434513 0.144258,0.201614 0.186841,0.464061 0.128616,0.782124 a 2.1725677,2.1725677 0 0 1 -0.07474,0.283303 0.57008178,0.57008178 0 0 0 -0.102546,-0.0096 0.54661805,0.54661805 0 0 0 -0.555308,0.53619 0.5292375,0.5292375 0 0 0 0.173806,0.391931 6.5959157,6.5959157 0 0 1 -0.530976,0.668282 z"
     id="path1530" />
  <path
     style="fill:#e53315;stroke-width:0.08690271"
     inkscape:connector-curvature="0"
     class="cls-2"
     d="m 23.877875,41.402486 c 0,0 1.021976,-1.532964 2.55407,-1.835386 1.532095,-0.302421 3.065928,1.738055 3.065928,1.738055 z"
     id="path1532" />
  <path
     style="fill:#e53315;stroke-width:0.08690271"
     inkscape:connector-curvature="0"
     class="cls-2"
     d="m 23.877875,41.402486 c 0,0 0.450156,2.963382 2.681817,2.963382 2.938181,0 2.938181,-3.065928 2.938181,-3.065928 z"
     id="path1534" />
  <ellipse
     style="fill:#ffffff;stroke-width:0.08690271"
     class="cls-3"
     cx="25.806246"
     cy="43.075363"
     rx="0.49795252"
     ry="0.47275075"
     id="ellipse1536" />
  <path
     style="fill:#227bbe;stroke-width:0.08690271"
     inkscape:connector-curvature="0"
     class="cls-1"
     d="m 17.155081,50.169231 v 1.134949 a 26.500112,26.500112 0 0 0 2.946002,1.037619 v -2.172568 z"
     id="path1538" />
  <path
     style="fill:#227bbe;stroke-width:0.08690271"
     inkscape:connector-curvature="0"
     class="cls-1"
     d="M 30.738844,52.672898 C 29.817675,51.946391 28.468945,51.658743 26.54405,51.658743 a 26.268082,26.268082 0 0 0 -3.90367,0.266792 v 1.00894 a 26.744309,26.744309 0 0 0 8.542537,0.168591 3.1050338,3.1050338 0 0 0 -0.444073,-0.430168 z"
     id="path1540" />
  <path
     style="fill:#227bbe;stroke-width:0.08690271"
     inkscape:connector-curvature="0"
     class="cls-1"
     d="m 34.050706,50.169231 v 2.370706 a 26.331521,26.331521 0 0 0 2.528869,-0.782125 c 0.139913,-0.0504 0.27722,-0.103414 0.414526,-0.155555 v -1.433026 z"
     id="path1542" />
</svg>
