<?xml version="1.0" encoding="UTF-8" standalone="no"?>
<!-- Created with Inkscape (http://www.inkscape.org/) -->

<svg
   xmlns:dc="http://purl.org/dc/elements/1.1/"
   xmlns:cc="http://creativecommons.org/ns#"
   xmlns:rdf="http://www.w3.org/1999/02/22-rdf-syntax-ns#"
   xmlns:svg="http://www.w3.org/2000/svg"
   xmlns="http://www.w3.org/2000/svg"
   xmlns:sodipodi="http://sodipodi.sourceforge.net/DTD/sodipodi-0.dtd"
   xmlns:inkscape="http://www.inkscape.org/namespaces/inkscape"
   width="128"
   height="128"
   viewBox="0 0 33.866667 33.866667"
   version="1.1"
   id="svg1554"
   inkscape:version="0.92.5 (2060ec1f9f, 2020-04-08)"
   sodipodi:docname="favicon.svg"
   inkscape:export-filename="/media/benny/hd2/datahd2/git/girlsinstem/images/favicon.png"
   inkscape:export-xdpi="96"
   inkscape:export-ydpi="96">
  <defs
     id="defs1548">
    <style
       id="style936">.cls-1{fill:#227bbe;}.cls-2{fill:#e53315;}.cls-3{fill:#fff;}.cls-4{fill:none;stroke:#cd94af;}.cls-4,.cls-5{stroke-miterlimit:10;stroke-width:3.87px;}.cls-5{fill:#e5332a;stroke:#1d70b7;}</style>
  </defs>
  <sodipodi:namedview
     id="base"
     pagecolor="#ffffff"
     bordercolor="#666666"
     borderopacity="1.0"
     inkscape:pageopacity="0.0"
     inkscape:pageshadow="2"
     inkscape:zoom="1.2864672"
     inkscape:cx="-186.89578"
     inkscape:cy="49.548138"
     inkscape:document-units="mm"
     inkscape:current-layer="layer1"
     showgrid="false"
     fit-margin-top="0"
     fit-margin-left="0"
     fit-margin-right="0"
     fit-margin-bottom="0"
     inkscape:window-width="1156"
     inkscape:window-height="545"
     inkscape:window-x="105"
     inkscape:window-y="112"
     inkscape:window-maximized="0"
     units="px" />
  <metadata
     id="metadata1551">
    <rdf:RDF>
      <cc:Work
         rdf:about="">
        <dc:format>image/svg+xml</dc:format>
        <dc:type
           rdf:resource="http://purl.org/dc/dcmitype/StillImage" />
        <dc:title />
      </cc:Work>
    </rdf:RDF>
  </metadata>
  <g
     inkscape:label="Layer 1"
     inkscape:groupmode="layer"
     id="layer1"
     transform="translate(91.274295,-99.315724)">
    <g
       id="g1196"
       transform="matrix(0.86811503,0,0,0.86811503,34.77178,12.576)">
      <path
         id="path940"
         d="m -105.93669,119.52745 a 19.513679,19.513679 0 0 1 -12.4943,18.19715 c -0.10059,0.0382 -0.20117,0.077 -0.30367,0.11395 a 19.581161,19.581161 0 0 1 -6.6947,1.18157 19.488851,19.488851 0 0 1 -3.51541,-0.31831 18.995471,18.995471 0 0 1 -1.86021,-0.4329 19.413093,19.413093 0 0 1 -2.15814,-0.76012 q -0.86389,-0.36224 -1.68641,-0.80406 c -0.0929,-0.0484 -0.18589,-0.10058 -0.27629,-0.15278 a 19.480575,19.480575 0 0 1 -9.99493,-17.02514 c 0,-10.76524 8.72742,-19.49267 19.49267,-19.49267 10.76524,0 19.49139,8.72806 19.49139,19.49331 z"
         class="cls-1"
         inkscape:connector-curvature="0"
         style="fill:#227bbe;stroke-width:0.06366201" />
      <g
         transform="matrix(1.0903085,0,0,1.0903085,-34.300369,-25.062987)"
         id="g1173">
        <g
           id="g1152"
           transform="matrix(1.0925248,0,0,1.0925248,56.383907,-11.061017)">
          <path
             id="path966"
             d="m -115.95612,128.34025 -0.098,3.97505 q -0.0115,0.44564 -0.0477,0.88363 c -0.4972,5.93903 -4.72245,10.91358 -10.37691,12.78652 l -0.0637,0.0204 a 5.2362003,5.2362003 0 0 1 -3.11053,-0.0446 l -0.15024,-0.0548 c -4.03108,-1.46422 -7.3848,-4.49135 -8.95088,-8.48551 a 15.015322,15.015322 0 0 1 -1.03005,-5.11078 l -0.0987,-3.96996 a 9.5696733,9.5696733 0 0 1 3.71914,-7.81261 v 0 a 13.496346,13.496346 0 0 1 8.24359,-2.81004 v 0 a 13.496346,13.496346 0 0 1 8.24359,2.81004 v 0 a 9.5664902,9.5664902 0 0 1 3.72041,7.81261 z"
             class="cls-3"
             inkscape:connector-curvature="0"
             style="fill:#ffffff;stroke-width:0.06366201" />
          <polygon
             transform="matrix(0.06366201,0,0,0.06366201,-153.08508,109.55868)"
             id="polygon968"
             points="569.31,340.64 568.13,266.56 602.27,269.66 "
             class="cls-1"
             style="fill:#227bbe" />
          <polygon
             transform="matrix(0.06366201,0,0,0.06366201,-153.08508,109.55868)"
             id="polygon970"
             points="208.91,357.38 230.64,235.98 187.13,290.08 "
             class="cls-1"
             style="fill:#227bbe" />
          <path
             id="path972"
             d="M -136.35279,144.99868"
             class="cls-4"
             inkscape:connector-curvature="0"
             style="fill:none;stroke:#cd94af;stroke-width:0.24637197px;stroke-miterlimit:10" />
          <path
             id="path974"
             d="m -130.52517,127.09056 -3.39764,-0.24255 -0.48638,-2.91509 -0.60733,3.27923 h -3.89039 l -0.12096,-1.70104 -0.60733,2.55093 h -2.30902 c 0,0 -0.36924,-3.71786 4.97582,-8.0908 1.06379,-0.87026 3.09652,-1.87994 3.87893,-2.43826 5.16937,0.18457 9.61275,-2.88156 14.59005,1.78318 3.40083,3.40146 4.1304,7.40962 4.1304,7.40962 l -4.01071,0.24319 -1.82201,-3.88721 0.60734,4.01071 -5.70921,0.36415 -0.85053,-4.49454 0.1216,4.01071 z"
             class="cls-1"
             inkscape:connector-curvature="0"
             style="fill:#227bbe;stroke-width:0.06366201"
             sodipodi:nodetypes="ccccccccccccccccccc" />
          <rect
             id="rect976"
             height="1.2834262"
             width="3.1277146"
             y="131.36801"
             x="-129.70967"
             class="cls-1"
             style="fill:#227bbe;stroke-width:0.06366201" />
          <path
             id="path978"
             d="M -133.53256,145.27307"
             class="cls-4"
             inkscape:connector-curvature="0"
             style="fill:none;stroke:#cd94af;stroke-width:0.24637197px;stroke-miterlimit:10" />
          <polygon
             transform="matrix(0.06366201,0,0,0.06366201,-153.08508,109.55868)"
             id="polygon980"
             points="186.61,337.12 233.64,355.8 241.2,316.12 185.77,326.2 "
             class="cls-1"
             style="fill:#227bbe" />
          <circle
             id="circle982"
             r="4.6116762"
             cy="132.61069"
             cx="-134.00049"
             class="cls-5"
             style="fill:#e5332a;stroke:#1d70b7;stroke-width:0.24637197px;stroke-miterlimit:10" />
          <path
             id="path984"
             d="m -139.80964,131.55454 c -0.17061,-0.65254 -0.58314,-1.23759 -1.18538,-1.54189 -0.32468,-0.16425 -0.70029,-0.24829 -1.08226,-0.11523 -1.31016,0.459 -0.0535,7.218 2.67381,7.91319 l 1.12299,-0.42781 z"
             class="cls-3"
             inkscape:connector-curvature="0"
             style="fill:#ffffff;stroke-width:0.06366201" />
          <polygon
             transform="matrix(0.06366201,0,0,0.06366201,-153.08508,109.55868)"
             id="polygon986"
             points="598.13,337.12 551.1,355.8 543.54,316.12 598.97,326.2 "
             class="cls-1"
             style="fill:#227bbe" />
          <path
             id="path988"
             d="m -116.20504,131.55454 c 0.17125,-0.65254 0.58378,-1.23759 1.18603,-1.54189 0.32404,-0.16425 0.70028,-0.24829 1.08225,-0.11523 1.30953,0.459 0.0535,7.218 -2.6738,7.91319 l -1.12236,-0.42781 z"
             class="cls-3"
             inkscape:connector-curvature="0"
             style="fill:#ffffff;stroke-width:0.06366201" />
          <circle
             id="circle990"
             r="4.6116762"
             cy="132.61069"
             cx="-122.21157"
             class="cls-5"
             style="fill:#e5332a;stroke:#1d70b7;stroke-width:0.24637197px;stroke-miterlimit:10" />
          <path
             id="path992"
             d="m -131.07521,132.37833 a 0.40043404,0.40043404 0 0 0 0.4068,-0.39343 0.39088474,0.39088474 0 0 0 -0.22536,-0.35078 1.6424799,1.6424799 0 0 0 0.0586,-0.22218 c 0.0484,-0.26293 0.0108,-0.48383 -0.11268,-0.65699 -0.27311,-0.38198 -0.91164,-0.45837 -1.71888,-0.26547 -0.26038,-0.60288 -0.62198,-1.03897 -1.03451,-1.21404 0,-0.009 0,-0.0172 0,-0.0261 a 0.40680024,0.40680024 0 0 0 -0.8136,0 c 0,0.009 0,0.0172 0,0.0261 -0.41062,0.17443 -0.77094,0.60797 -1.03132,1.2064 -0.78941,-0.18335 -1.41521,-0.10505 -1.6845,0.27311 -0.1235,0.17316 -0.1617,0.39406 -0.11332,0.65699 0.0789,0.42526 0.37752,0.92692 0.83334,1.43048 a 5.2202848,5.2202848 0 0 0 -0.36669,0.452 0.41825941,0.41825941 0 0 0 -0.21709,-0.0605 0.39979742,0.39979742 0 0 0 -0.4068,0.3928 0.3927946,0.3927946 0 0 0 0.24,0.35842 1.6787672,1.6787672 0 0 0 -0.0828,0.28775 c -0.0484,0.26292 -0.0102,0.48383 0.11332,0.65763 0.17698,0.24892 0.5093,0.36796 0.93965,0.36796 a 3.4307457,3.4307457 0 0 0 0.80978,-0.11077 c 0.26102,0.54495 0.60798,0.9352 1.00013,1.08926 a 0.40998334,0.40998334 0 0 0 0.79705,-0.0191 c 0.37561,-0.16552 0.7092,-0.54877 0.96066,-1.07716 a 3.4670331,3.4670331 0 0 0 0.83779,0.11777 c 0.43036,0 0.76395,-0.11904 0.93966,-0.36796 0.1235,-0.1738 0.16106,-0.39471 0.11268,-0.65763 -0.0783,-0.42526 -0.37752,-0.92628 -0.83334,-1.43049 a 5.0560368,5.0560368 0 0 0 0.4068,-0.50929 0.42144251,0.42144251 0 0 0 0.18462,0.0452 z m -3.40783,-2.98384 a 0.4118932,0.4118932 0 0 0 0.75758,0 c 0.37561,0.16425 0.70601,0.56786 0.94857,1.12618 a 6.7074294,6.7074294 0 0 0 -1.31017,0.51566 6.6673223,6.6673223 0 0 0 -1.34072,-0.5233 c 0.24192,-0.55641 0.57105,-0.95748 0.94474,-1.11854 z m 2.12886,3.37409 c 0,0.20817 -0.0102,0.41125 -0.028,0.6086 a 9.0049913,9.0049913 0 0 1 -1.70423,1.14592 8.9979885,8.9979885 0 0 1 -1.74307,-1.17838 q -0.0236,-0.28075 -0.0242,-0.57614 0,-0.21391 0.0134,-0.42081 a 8.6745855,8.6745855 0 0 1 0.90782,-0.6901 8.9228673,8.9228673 0 0 1 0.84543,-0.49847 9.0119941,9.0119941 0 0 1 0.84607,0.49847 8.7477968,8.7477968 0 0 1 0.8709,0.65827 c 0.0102,0.1496 0.0159,0.30048 0.0159,0.45264 z m 0.11077,-0.34123 c 0.15216,0.13687 0.29412,0.27565 0.42399,0.4138 -0.13241,0.14133 -0.27756,0.28266 -0.43354,0.42272 0.0121,-0.16171 0.0185,-0.32723 0.0185,-0.49529 0,-0.11396 -0.003,-0.22728 -0.009,-0.33996 z m -0.15151,1.11154 a 5.2559355,5.2559355 0 0 1 -0.38961,1.50751 6.7481731,6.7481731 0 0 1 -1.17584,-0.459 c 0.2591,-0.13751 0.52203,-0.29285 0.78431,-0.46728 a 9.0170871,9.0170871 0 0 0 0.78114,-0.58123 z m -1.8131,1.04787 a 6.6157561,6.6157561 0 0 1 -1.20575,0.46728 5.2470229,5.2470229 0 0 1 -0.39662,-1.54762 8.9916223,8.9916223 0 0 0 0.81869,0.6137 c 0.25911,0.17634 0.52203,0.32913 0.7805,0.46664 z m -1.75197,-1.35473 c -0.14197,-0.12732 -0.27502,-0.2591 -0.39726,-0.38961 0.11969,-0.12732 0.24956,-0.25464 0.38834,-0.38197 -0.004,0.10186 -0.007,0.20499 -0.007,0.30876 0.003,0.15788 0.008,0.31131 0.0159,0.46282 z m 0.12732,-1.04023 a 5.509947,5.509947 0 0 1 0.35651,-1.57564 6.5960209,6.5960209 0 0 1 1.26114,0.48192 c -0.2591,0.13751 -0.52139,0.29285 -0.78368,0.46728 a 8.8490194,8.8490194 0 0 0 -0.83015,0.62644 z m 2.64961,-0.62644 c -0.26165,-0.17443 -0.52457,-0.32977 -0.78304,-0.46728 a 6.644404,6.644404 0 0 1 1.22931,-0.47364 5.4749329,5.4749329 0 0 1 0.35078,1.53553 8.8840335,8.8840335 0 0 0 -0.79323,-0.59461 z m -4.0489,-0.17379 c -0.0427,-0.23173 -0.0115,-0.42399 0.0936,-0.57296 0.15534,-0.21773 0.45264,-0.31831 0.84225,-0.31831 a 3.2117484,3.2117484 0 0 1 0.70728,0.0904 5.6468203,5.6468203 0 0 0 -0.37178,1.71314 c -0.17062,0.15152 -0.32913,0.30431 -0.47301,0.45773 -0.43354,-0.48574 -0.72002,-0.96448 -0.7945,-1.37 z m 0.93965,3.79616 c -0.38961,0 -0.68691,-0.10377 -0.84225,-0.32149 -0.10504,-0.1477 -0.13624,-0.33996 -0.0936,-0.57296 a 1.6431165,1.6431165 0 0 1 0.0802,-0.2782 0.44563407,0.44563407 0 0 0 0.0586,0.004 0.39979742,0.39979742 0 0 0 0.4068,-0.39279 0.38197206,0.38197206 0 0 0 -0.10377,-0.26165 5.0363016,5.0363016 0 0 1 0.35651,-0.44054 c 0.14706,0.15724 0.31003,0.31449 0.4851,0.46919 a 5.4399188,5.4399188 0 0 0 0.41508,1.68895 3.2703175,3.2703175 0 0 1 -0.76267,0.10504 z m 2.61014,0.94284 a 0.4087101,0.4087101 0 0 0 -0.80532,0.0166 c -0.34187,-0.15215 -0.64554,-0.5023 -0.87981,-0.98676 a 6.7838238,6.7838238 0 0 0 1.28151,-0.5093 6.8474858,6.8474858 0 0 0 1.2516,0.49911 c -0.22791,0.47174 -0.52012,0.81806 -0.84925,0.97912 z m 2.73747,-1.83602 c 0.0426,0.23173 0.0108,0.42399 -0.0942,0.57296 -0.24892,0.34951 -0.86199,0.40489 -1.63548,0.21072 a 5.4475582,5.4475582 0 0 0 0.4068,-1.65203 c 0.19099,-0.16488 0.36479,-0.33359 0.52267,-0.50165 0.43863,0.48446 0.72447,0.96384 0.79959,1.37191 z m -0.79832,-1.53298 c -0.15407,-0.16425 -0.32532,-0.32786 -0.5093,-0.48956 a 5.6805612,5.6805612 0 0 0 -0.36669,-1.67431 3.2658611,3.2658611 0 0 1 0.73848,-0.0974 c 0.38897,0 0.68627,0.10313 0.84161,0.31831 0.10504,0.14769 0.13687,0.33995 0.0942,0.57296 a 1.5915502,1.5915502 0 0 1 -0.0548,0.20753 0.42271575,0.42271575 0 0 0 -0.0751,-0.007 0.40107066,0.40107066 0 0 0 -0.40744,0.3928 0.38833826,0.38833826 0 0 0 0.12732,0.28711 4.9223466,4.9223466 0 0 1 -0.38897,0.48829 z"
             class="cls-3"
             inkscape:connector-curvature="0"
             style="fill:#ffffff;stroke-width:0.06366201" />
          <path
             id="path994"
             d="m -119.35058,132.37833 a 0.40043404,0.40043404 0 0 0 0.4068,-0.39343 0.39088474,0.39088474 0 0 0 -0.22536,-0.35078 1.6424799,1.6424799 0 0 0 0.0586,-0.22218 c 0.049,-0.26293 0.0108,-0.48383 -0.11268,-0.65699 -0.27311,-0.38198 -0.91164,-0.45837 -1.71569,-0.26547 -0.26102,-0.60288 -0.62262,-1.03897 -1.03451,-1.21404 0,-0.009 0,-0.0172 0,-0.0261 a 0.40743686,0.40743686 0 0 0 -0.81424,0 c 0,0.009 0,0.0172 0,0.0261 -0.41062,0.17443 -0.77031,0.60797 -1.03069,1.2064 -0.79004,-0.18335 -1.4152,-0.10505 -1.68513,0.27311 -0.1235,0.17316 -0.1617,0.39406 -0.11268,0.65699 0.0783,0.42526 0.37751,0.92692 0.83333,1.43048 a 5.1152425,5.1152425 0 0 0 -0.36733,0.452 0.41634955,0.41634955 0 0 0 -0.21708,-0.0605 0.39979742,0.39979742 0 0 0 -0.4068,0.3928 0.3927946,0.3927946 0 0 0 0.24,0.35842 1.7341532,1.7341532 0 0 0 -0.0821,0.28775 c -0.049,0.26292 -0.0108,0.48383 0.11268,0.65763 0.17762,0.24892 0.5093,0.36796 0.93965,0.36796 a 3.4262894,3.4262894 0 0 0 0.80724,-0.11077 c 0.26101,0.54495 0.6086,0.9352 1.00013,1.08926 a 0.40998334,0.40998334 0 0 0 0.79704,-0.0191 c 0.37625,-0.16552 0.7092,-0.54877 0.9613,-1.07716 a 3.4581204,3.4581204 0 0 0 0.83525,0.11714 c 0.43099,0 0.76394,-0.11905 0.93965,-0.36797 0.1235,-0.1738 0.1617,-0.3947 0.11268,-0.65763 -0.0783,-0.42526 -0.37752,-0.92628 -0.83334,-1.43048 a 5.0560368,5.0560368 0 0 0 0.4068,-0.5093 0.42335237,0.42335237 0 0 0 0.18653,0.0458 z m -3.40782,-2.98384 a 0.41252982,0.41252982 0 0 0 0.75821,0 c 0.37497,0.16425 0.70538,0.56786 0.94793,1.12618 a 6.7233449,6.7233449 0 0 0 -1.31017,0.51566 6.6673223,6.6673223 0 0 0 -1.34072,-0.5233 c 0.24255,-0.55641 0.57105,-0.95748 0.94475,-1.11854 z m 2.12885,3.37409 c 0,0.20817 -0.01,0.41125 -0.0274,0.6086 a 9.0355491,9.0355491 0 0 1 -1.70487,1.14592 8.9693406,8.9693406 0 0 1 -1.74243,-1.17838 c -0.0159,-0.18717 -0.0248,-0.38198 -0.0248,-0.57614 0,-0.14261 0.005,-0.28266 0.0134,-0.42081 a 8.7420672,8.7420672 0 0 1 0.90782,-0.6901 8.9228673,8.9228673 0 0 1 0.84543,-0.49847 8.8490194,8.8490194 0 0 1 0.84607,0.49847 8.7579827,8.7579827 0 0 1 0.87153,0.65827 c 0.01,0.1496 0.0153,0.30048 0.0153,0.45264 z m 0.11078,-0.34123 c 0.15278,0.13687 0.29475,0.27565 0.42398,0.4138 -0.13241,0.14133 -0.27756,0.28266 -0.43353,0.42272 0.0121,-0.16171 0.0185,-0.32723 0.0185,-0.49529 0,-0.11396 -0.003,-0.22728 -0.009,-0.33996 z m -0.1547,1.11026 a 5.2559355,5.2559355 0 0 1 -0.38961,1.50879 6.7481731,6.7481731 0 0 1 -1.17521,-0.459 c 0.25847,-0.13751 0.5214,-0.29285 0.78432,-0.46728 a 9.1036674,9.1036674 0 0 0 0.7805,-0.58123 z m -1.81246,1.04788 a 6.6386744,6.6386744 0 0 1 -1.2064,0.46728 5.2667581,5.2667581 0 0 1 -0.39661,-1.54763 8.9916223,8.9916223 0 0 0 0.81869,0.61371 c 0.26229,0.17761 0.52522,0.3304 0.78432,0.46791 z m -1.74689,-1.35473 c -0.14196,-0.12732 -0.27502,-0.2591 -0.39661,-0.38961 0.11905,-0.12732 0.24892,-0.25465 0.38834,-0.38197 -0.005,0.10186 -0.008,0.20499 -0.008,0.30876 0.003,0.15915 0.006,0.31258 0.0159,0.46409 z m 0.12733,-1.04024 a 5.5093103,5.5093103 0 0 1 0.35714,-1.57563 6.5909279,6.5909279 0 0 1 1.26051,0.48192 c -0.2591,0.13751 -0.52139,0.29285 -0.78368,0.46728 a 8.9292335,8.9292335 0 0 0 -0.8327,0.62771 z m 2.65025,-0.62643 c -0.26229,-0.17443 -0.52521,-0.32977 -0.78368,-0.46728 a 6.6323082,6.6323082 0 0 1 1.22995,-0.47364 5.4946681,5.4946681 0 0 1 0.35014,1.53552 8.9648842,8.9648842 0 0 0 -0.79514,-0.59333 z m -4.04954,-0.1738 c -0.0427,-0.23173 -0.0115,-0.42399 0.0942,-0.57296 0.1547,-0.21772 0.452,-0.31831 0.84161,-0.31831 a 3.2028357,3.2028357 0 0 1 0.70728,0.0904 5.6659189,5.6659189 0 0 0 -0.37178,1.71315 c -0.17062,0.15151 -0.32914,0.3043 -0.47301,0.45773 -0.43609,-0.48447 -0.72193,-0.96321 -0.79705,-1.36873 z m 0.94028,3.79744 c -0.38961,0 -0.68691,-0.10377 -0.84161,-0.32149 -0.10568,-0.1477 -0.13687,-0.33996 -0.0942,-0.57296 a 1.6431165,1.6431165 0 0 1 0.0802,-0.2782 0.44563407,0.44563407 0 0 0 0.0586,0.004 0.39979742,0.39979742 0 0 0 0.4068,-0.39279 0.38197206,0.38197206 0 0 0 -0.10377,-0.26165 5.0363016,5.0363016 0 0 1 0.35651,-0.44054 c 0.14769,0.15724 0.31003,0.31449 0.4851,0.46919 a 5.4577441,5.4577441 0 0 0 0.41508,1.68895 3.2664977,3.2664977 0 0 1 -0.76268,0.10504 z m 2.61015,0.94284 a 0.4087101,0.4087101 0 0 0 -0.80596,0.0166 c -0.34187,-0.15215 -0.64554,-0.5023 -0.87981,-0.98676 a 6.7672717,6.7672717 0 0 0 1.28151,-0.5093 6.8474858,6.8474858 0 0 0 1.2516,0.49911 c -0.22982,0.47174 -0.52267,0.81806 -0.85116,0.97912 z m 2.73746,-1.83602 c 0.0427,0.23173 0.0115,0.42399 -0.0942,0.57296 -0.24828,0.34951 -0.86198,0.40489 -1.63547,0.21072 a 5.4475582,5.4475582 0 0 0 0.40871,-1.64948 7.1893508,7.1893508 0 0 0 0.52266,-0.50166 c 0.43354,0.48192 0.71938,0.9613 0.7945,1.36937 z m -0.80214,-1.53425 c -0.15406,-0.16425 -0.32467,-0.32786 -0.50929,-0.48956 a 5.6805612,5.6805612 0 0 0 -0.3667,-1.67431 3.2658611,3.2658611 0 0 1 0.73848,-0.0974 c 0.38961,0 0.68692,0.10314 0.84161,0.31831 0.10568,0.1477 0.13688,0.33996 0.0942,0.57296 a 1.5915502,1.5915502 0 0 1 -0.0547,0.20754 0.41762279,0.41762279 0 0 0 -0.0751,-0.007 0.40043404,0.40043404 0 0 0 -0.4068,0.39279 0.38770164,0.38770164 0 0 0 0.12733,0.28712 4.8319466,4.8319466 0 0 1 -0.38898,0.48956 z"
             class="cls-3"
             inkscape:connector-curvature="0"
             style="fill:#ffffff;stroke-width:0.06366201" />
          <path
             id="path996"
             d="m -130.61621,139.77904 c 0,0 0.74867,-1.123 1.87103,-1.34455 1.12236,-0.22154 2.246,1.27324 2.246,1.27324 z"
             class="cls-2"
             inkscape:connector-curvature="0"
             style="fill:#e53315;stroke-width:0.06366201" />
          <path
             id="path998"
             d="m -130.61621,139.77904 c 0,0 0.32977,2.17087 1.96461,2.17087 2.15242,0 2.15242,-2.246 2.15242,-2.246 z"
             class="cls-2"
             inkscape:connector-curvature="0"
             style="fill:#e53315;stroke-width:0.06366201" />
          <ellipse
             id="ellipse1000"
             ry="0.34632134"
             rx="0.36478332"
             cy="141.00455"
             cx="-129.20355"
             class="cls-3"
             style="fill:#ffffff;stroke-width:0.06366201" />
        </g>
      </g>
    </g>
  </g>
</svg>
